<svg xmlns="http://www.w3.org/2000/svg" xmlns:xlink="http://www.w3.org/1999/xlink" contentStyleType="text/css" data-diagram-type="CLASS" height="604px" preserveAspectRatio="none" style="width:2253px;height:604px;background:#FFFFFF;" version="1.1" viewBox="0 0 2253 604" width="2253px" zoomAndPan="magnify"><?plantuml 1.2026.6?><defs/><g><g class="title" data-source-line="6"><text fill="#000000" font-family="Arial" font-size="14" font-weight="700" lengthAdjust="spacing" textLength="365.6543" x="940.1729" y="23.1318">SIMDP - Class Domain Overview (Relasi Antar Domain)</text></g><!--cluster Auth Domain--><g class="cluster" data-qualified-name="Auth Domain" data-source-line="8" id="ent0001"><path d="M8.5,43.0986 L96.6035,43.0986 A3.75,3.75 0 0 1 99.1035,45.5986 L106.1035,65.1973 L360.5,65.1973 A2.5,2.5 0 0 1 363,67.6973 L363,247.5986 A2.5,2.5 0 0 1 360.5,250.0986 L8.5,250.0986 A2.5,2.5 0 0 1 6,247.5986 L6,45.5986 A2.5,2.5 0 0 1 8.5,43.0986" fill="none" style="stroke:#000000;stroke-width:1.5;"/><line style="stroke:#000000;stroke-width:1.5;" x1="6" x2="106.1035" y1="65.1973" y2="65.1973"/><text fill="#000000" font-family="Arial" font-size="14" font-weight="700" lengthAdjust="spacing" textLength="87.1035" x="10" y="58.2305">Auth Domain</text></g><!--cluster Employee Domain--><g class="cluster" data-qualified-name="Employee Domain" data-source-line="14" id="ent0005"><path d="M389.5,151.0986 L511.8652,151.0986 A3.75,3.75 0 0 1 514.3652,153.5986 L521.3652,173.1973 L1295.5,173.1973 A2.5,2.5 0 0 1 1298,175.6973 L1298,478.5986 A2.5,2.5 0 0 1 1295.5,481.0986 L389.5,481.0986 A2.5,2.5 0 0 1 387,478.5986 L387,153.5986 A2.5,2.5 0 0 1 389.5,151.0986" fill="none" style="stroke:#000000;stroke-width:1.5;"/><line style="stroke:#000000;stroke-width:1.5;" x1="387" x2="521.3652" y1="173.1973" y2="173.1973"/><text fill="#000000" font-family="Arial" font-size="14" font-weight="700" lengthAdjust="spacing" textLength="121.3652" x="391" y="166.2305">Employee Domain</text></g><!--cluster Document Domain--><g class="cluster" data-qualified-name="Document Domain" data-source-line="25" id="ent0014"><path d="M1374.5,274.0986 L1499.1758,274.0986 A3.75,3.75 0 0 1 1501.6758,276.5986 L1508.6758,296.1973 L1729.5,296.1973 A2.5,2.5 0 0 1 1732,298.6973 L1732,586.5986 A2.5,2.5 0 0 1 1729.5,589.0986 L1374.5,589.0986 A2.5,2.5 0 0 1 1372,586.5986 L1372,276.5986 A2.5,2.5 0 0 1 1374.5,274.0986" fill="none" style="stroke:#000000;stroke-width:1.5;"/><line style="stroke:#000000;stroke-width:1.5;" x1="1372" x2="1508.6758" y1="296.1973" y2="296.1973"/><text fill="#000000" font-family="Arial" font-size="14" font-weight="700" lengthAdjust="spacing" textLength="123.6758" x="1376" y="289.2305">Document Domain</text></g><!--cluster System Domain--><g class="cluster" data-qualified-name="System Domain" data-source-line="32" id="ent0019"><path d="M1808.5,151.0986 L1914.5342,151.0986 A3.75,3.75 0 0 1 1917.0342,153.5986 L1924.0342,173.1973 L2235.5,173.1973 A2.5,2.5 0 0 1 2238,175.6973 L2238,247.5986 A2.5,2.5 0 0 1 2235.5,250.0986 L1808.5,250.0986 A2.5,2.5 0 0 1 1806,247.5986 L1806,153.5986 A2.5,2.5 0 0 1 1808.5,151.0986" fill="none" style="stroke:#000000;stroke-width:1.5;"/><line style="stroke:#000000;stroke-width:1.5;" x1="1806" x2="1924.0342" y1="173.1973" y2="173.1973"/><text fill="#000000" font-family="Arial" font-size="14" font-weight="700" lengthAdjust="spacing" textLength="105.0342" x="1810" y="166.2305">System Domain</text></g><!--class User--><g class="entity" data-qualified-name="Auth Domain.User" data-source-line="9" id="ent0002"><rect fill="#F1F1F1" height="48" rx="2.5" ry="2.5" style="stroke:#181818;stroke-width:0.5;" width="61.5586" x="285" y="78.0986"/><ellipse cx="300" cy="94.0986" fill="#ADD1B2" rx="11" ry="11" style="stroke:#181818;stroke-width:1;"/><path d="M302.7656,89.9736 Q302.9219,89.7549 303.1094,89.6455 Q303.2969,89.5361 303.5156,89.5361 Q303.8906,89.5361 304.125,89.8018 Q304.3594,90.0518 304.3594,90.6611 L304.3594,92.1143 Q304.3594,92.7236 304.125,92.9893 Q303.8906,93.2549 303.5156,93.2549 Q303.1719,93.2549 302.9688,93.0518 Q302.7656,92.8643 302.6563,92.3486 Q302.6094,91.9893 302.4219,91.8018 Q302.0938,91.4268 301.4844,91.208 Q300.875,90.9893 300.25,90.9893 Q299.4844,90.9893 298.8438,91.3174 Q298.2188,91.6455 297.7188,92.3955 Q297.2344,93.1455 297.2344,94.1768 L297.2344,95.2705 Q297.2344,96.5049 298.125,97.333 Q299.0156,98.1455 300.6094,98.1455 Q301.5469,98.1455 302.2031,97.8955 Q302.5938,97.7393 303.0156,97.3018 Q303.2813,97.0361 303.4219,96.958 Q303.5781,96.8799 303.7813,96.8799 Q304.1094,96.8799 304.3594,97.1455 Q304.625,97.3955 304.625,97.7393 Q304.625,98.083 304.2813,98.4893 Q303.7813,99.0674 302.9844,99.3955 Q301.9063,99.8486 300.6094,99.8486 Q299.0938,99.8486 297.8906,99.2236 Q296.9063,98.7236 296.2188,97.6611 Q295.5313,96.583 295.5313,95.3018 L295.5313,94.1455 Q295.5313,92.8174 296.1406,91.6768 Q296.7656,90.5205 297.8594,89.9111 Q298.9531,89.2861 300.1875,89.2861 Q300.9219,89.2861 301.5625,89.458 Q302.2188,89.6143 302.7656,89.9736 Z " fill="#000000"/><text fill="#000000" font-family="Arial" font-size="14" lengthAdjust="spacing" textLength="29.5586" x="314" y="99.1812">User</text><line style="stroke:#181818;stroke-width:0.5;" x1="286" x2="345.5586" y1="110.0986" y2="110.0986"/><line style="stroke:#181818;stroke-width:0.5;" x1="286" x2="345.5586" y1="118.0986" y2="118.0986"/></g><!--class RefreshToken--><g class="entity" data-qualified-name="Auth Domain.RefreshToken" data-source-line="10" id="ent0003"><rect fill="#F1F1F1" height="48" rx="2.5" ry="2.5" style="stroke:#181818;stroke-width:0.5;" width="119.9307" x="22" y="186.0986"/><ellipse cx="37" cy="202.0986" fill="#ADD1B2" rx="11" ry="11" style="stroke:#181818;stroke-width:1;"/><path d="M39.7656,197.9736 Q39.9219,197.7549 40.1094,197.6455 Q40.2969,197.5361 40.5156,197.5361 Q40.8906,197.5361 41.125,197.8018 Q41.3594,198.0518 41.3594,198.6611 L41.3594,200.1143 Q41.3594,200.7236 41.125,200.9893 Q40.8906,201.2549 40.5156,201.2549 Q40.1719,201.2549 39.9688,201.0518 Q39.7656,200.8643 39.6563,200.3486 Q39.6094,199.9893 39.4219,199.8018 Q39.0938,199.4268 38.4844,199.208 Q37.875,198.9893 37.25,198.9893 Q36.4844,198.9893 35.8438,199.3174 Q35.2188,199.6455 34.7188,200.3955 Q34.2344,201.1455 34.2344,202.1768 L34.2344,203.2705 Q34.2344,204.5049 35.125,205.333 Q36.0156,206.1455 37.6094,206.1455 Q38.5469,206.1455 39.2031,205.8955 Q39.5938,205.7393 40.0156,205.3018 Q40.2813,205.0361 40.4219,204.958 Q40.5781,204.8799 40.7813,204.8799 Q41.1094,204.8799 41.3594,205.1455 Q41.625,205.3955 41.625,205.7393 Q41.625,206.083 41.2813,206.4893 Q40.7813,207.0674 39.9844,207.3955 Q38.9063,207.8486 37.6094,207.8486 Q36.0938,207.8486 34.8906,207.2236 Q33.9063,206.7236 33.2188,205.6611 Q32.5313,204.583 32.5313,203.3018 L32.5313,202.1455 Q32.5313,200.8174 33.1406,199.6768 Q33.7656,198.5205 34.8594,197.9111 Q35.9531,197.2861 37.1875,197.2861 Q37.9219,197.2861 38.5625,197.458 Q39.2188,197.6143 39.7656,197.9736 Z " fill="#000000"/><text fill="#000000" font-family="Arial" font-size="14" lengthAdjust="spacing" textLength="87.9307" x="51" y="207.1812">RefreshToken</text><line style="stroke:#181818;stroke-width:0.5;" x1="23" x2="140.9307" y1="218.0986" y2="218.0986"/><line style="stroke:#181818;stroke-width:0.5;" x1="23" x2="140.9307" y1="226.0986" y2="226.0986"/></g><!--class PasswordResetToken--><g class="entity" data-qualified-name="Auth Domain.PasswordResetToken" data-source-line="11" id="ent0004"><rect fill="#F1F1F1" height="48" rx="2.5" ry="2.5" style="stroke:#181818;stroke-width:0.5;" width="168.9512" x="177.5" y="186.0986"/><ellipse cx="192.5" cy="202.0986" fill="#ADD1B2" rx="11" ry="11" style="stroke:#181818;stroke-width:1;"/><path d="M195.2656,197.9736 Q195.4219,197.7549 195.6094,197.6455 Q195.7969,197.5361 196.0156,197.5361 Q196.3906,197.5361 196.625,197.8018 Q196.8594,198.0518 196.8594,198.6611 L196.8594,200.1143 Q196.8594,200.7236 196.625,200.9893 Q196.3906,201.2549 196.0156,201.2549 Q195.6719,201.2549 195.4688,201.0518 Q195.2656,200.8643 195.1563,200.3486 Q195.1094,199.9893 194.9219,199.8018 Q194.5938,199.4268 193.9844,199.208 Q193.375,198.9893 192.75,198.9893 Q191.9844,198.9893 191.3438,199.3174 Q190.7188,199.6455 190.2188,200.3955 Q189.7344,201.1455 189.7344,202.1768 L189.7344,203.2705 Q189.7344,204.5049 190.625,205.333 Q191.5156,206.1455 193.1094,206.1455 Q194.0469,206.1455 194.7031,205.8955 Q195.0938,205.7393 195.5156,205.3018 Q195.7813,205.0361 195.9219,204.958 Q196.0781,204.8799 196.2813,204.8799 Q196.6094,204.8799 196.8594,205.1455 Q197.125,205.3955 197.125,205.7393 Q197.125,206.083 196.7813,206.4893 Q196.2813,207.0674 195.4844,207.3955 Q194.4063,207.8486 193.1094,207.8486 Q191.5938,207.8486 190.3906,207.2236 Q189.4063,206.7236 188.7188,205.6611 Q188.0313,204.583 188.0313,203.3018 L188.0313,202.1455 Q188.0313,200.8174 188.6406,199.6768 Q189.2656,198.5205 190.3594,197.9111 Q191.4531,197.2861 192.6875,197.2861 Q193.4219,197.2861 194.0625,197.458 Q194.7188,197.6143 195.2656,197.9736 Z " fill="#000000"/><text fill="#000000" font-family="Arial" font-size="14" lengthAdjust="spacing" textLength="136.9512" x="206.5" y="207.1812">PasswordResetToken</text><line style="stroke:#181818;stroke-width:0.5;" x1="178.5" x2="345.4512" y1="218.0986" y2="218.0986"/><line style="stroke:#181818;stroke-width:0.5;" x1="178.5" x2="345.4512" y1="226.0986" y2="226.0986"/></g><!--class Employee--><g class="entity" data-qualified-name="Employee Domain.Employee" data-source-line="15" id="ent0006"><rect fill="#F1F1F1" height="48" rx="2.5" ry="2.5" style="stroke:#181818;stroke-width:0.5;" width="94.2549" x="821" y="186.0986"/><ellipse cx="836" cy="202.0986" fill="#ADD1B2" rx="11" ry="11" style="stroke:#181818;stroke-width:1;"/><path d="M838.7656,197.9736 Q838.9219,197.7549 839.1094,197.6455 Q839.2969,197.5361 839.5156,197.5361 Q839.8906,197.5361 840.125,197.8018 Q840.3594,198.0518 840.3594,198.6611 L840.3594,200.1143 Q840.3594,200.7236 840.125,200.9893 Q839.8906,201.2549 839.5156,201.2549 Q839.1719,201.2549 838.9688,201.0518 Q838.7656,200.8643 838.6563,200.3486 Q838.6094,199.9893 838.4219,199.8018 Q838.0938,199.4268 837.4844,199.208 Q836.875,198.9893 836.25,198.9893 Q835.4844,198.9893 834.8438,199.3174 Q834.2188,199.6455 833.7188,200.3955 Q833.2344,201.1455 833.2344,202.1768 L833.2344,203.2705 Q833.2344,204.5049 834.125,205.333 Q835.0156,206.1455 836.6094,206.1455 Q837.5469,206.1455 838.2031,205.8955 Q838.5938,205.7393 839.0156,205.3018 Q839.2813,205.0361 839.4219,204.958 Q839.5781,204.8799 839.7813,204.8799 Q840.1094,204.8799 840.3594,205.1455 Q840.625,205.3955 840.625,205.7393 Q840.625,206.083 840.2813,206.4893 Q839.7813,207.0674 838.9844,207.3955 Q837.9063,207.8486 836.6094,207.8486 Q835.0938,207.8486 833.8906,207.2236 Q832.9063,206.7236 832.2188,205.6611 Q831.5313,204.583 831.5313,203.3018 L831.5313,202.1455 Q831.5313,200.8174 832.1406,199.6768 Q832.7656,198.5205 833.8594,197.9111 Q834.9531,197.2861 836.1875,197.2861 Q836.9219,197.2861 837.5625,197.458 Q838.2188,197.6143 838.7656,197.9736 Z " fill="#000000"/><text fill="#000000" font-family="Arial" font-size="14" lengthAdjust="spacing" textLength="62.2549" x="850" y="207.1812">Employee</text><line style="stroke:#181818;stroke-width:0.5;" x1="822" x2="914.2549" y1="218.0986" y2="218.0986"/><line style="stroke:#181818;stroke-width:0.5;" x1="822" x2="914.2549" y1="226.0986" y2="226.0986"/></g><!--class EmploymentStatus--><g class="entity" data-qualified-name="Employee Domain.EmploymentStatus" data-source-line="16" id="ent0007"><rect fill="#F1F1F1" height="48" rx="2.5" ry="2.5" style="stroke:#181818;stroke-width:0.5;" width="149.4961" x="582.5" y="309.0986"/><ellipse cx="597.5" cy="325.0986" fill="#ADD1B2" rx="11" ry="11" style="stroke:#181818;stroke-width:1;"/><path d="M600.2656,320.9736 Q600.4219,320.7549 600.6094,320.6455 Q600.7969,320.5361 601.0156,320.5361 Q601.3906,320.5361 601.625,320.8018 Q601.8594,321.0518 601.8594,321.6611 L601.8594,323.1143 Q601.8594,323.7236 601.625,323.9893 Q601.3906,324.2549 601.0156,324.2549 Q600.6719,324.2549 600.4688,324.0518 Q600.2656,323.8643 600.1563,323.3486 Q600.1094,322.9893 599.9219,322.8018 Q599.5938,322.4268 598.9844,322.208 Q598.375,321.9893 597.75,321.9893 Q596.9844,321.9893 596.3438,322.3174 Q595.7188,322.6455 595.2188,323.3955 Q594.7344,324.1455 594.7344,325.1768 L594.7344,326.2705 Q594.7344,327.5049 595.625,328.333 Q596.5156,329.1455 598.1094,329.1455 Q599.0469,329.1455 599.7031,328.8955 Q600.0938,328.7393 600.5156,328.3018 Q600.7813,328.0361 600.9219,327.958 Q601.0781,327.8799 601.2813,327.8799 Q601.6094,327.8799 601.8594,328.1455 Q602.125,328.3955 602.125,328.7393 Q602.125,329.083 601.7813,329.4893 Q601.2813,330.0674 600.4844,330.3955 Q599.4063,330.8486 598.1094,330.8486 Q596.5938,330.8486 595.3906,330.2236 Q594.4063,329.7236 593.7188,328.6611 Q593.0313,327.583 593.0313,326.3018 L593.0313,325.1455 Q593.0313,323.8174 593.6406,322.6768 Q594.2656,321.5205 595.3594,320.9111 Q596.4531,320.2861 597.6875,320.2861 Q598.4219,320.2861 599.0625,320.458 Q599.7188,320.6143 600.2656,320.9736 Z " fill="#000000"/><text fill="#000000" font-family="Arial" font-size="14" lengthAdjust="spacing" textLength="117.4961" x="611.5" y="330.1812">EmploymentStatus</text><line style="stroke:#181818;stroke-width:0.5;" x1="583.5" x2="730.9961" y1="341.0986" y2="341.0986"/><line style="stroke:#181818;stroke-width:0.5;" x1="583.5" x2="730.9961" y1="349.0986" y2="349.0986"/></g><!--class EmployeeGroup--><g class="entity" data-qualified-name="Employee Domain.EmployeeGroup" data-source-line="17" id="ent0008"><rect fill="#F1F1F1" height="48" rx="2.5" ry="2.5" style="stroke:#181818;stroke-width:0.5;" width="133.165" x="645.5" y="417.0986"/><ellipse cx="660.5" cy="433.0986" fill="#ADD1B2" rx="11" ry="11" style="stroke:#181818;stroke-width:1;"/><path d="M663.2656,428.9736 Q663.4219,428.7549 663.6094,428.6455 Q663.7969,428.5361 664.0156,428.5361 Q664.3906,428.5361 664.625,428.8018 Q664.8594,429.0518 664.8594,429.6611 L664.8594,431.1143 Q664.8594,431.7236 664.625,431.9893 Q664.3906,432.2549 664.0156,432.2549 Q663.6719,432.2549 663.4688,432.0518 Q663.2656,431.8643 663.1563,431.3486 Q663.1094,430.9893 662.9219,430.8018 Q662.5938,430.4268 661.9844,430.208 Q661.375,429.9893 660.75,429.9893 Q659.9844,429.9893 659.3438,430.3174 Q658.7188,430.6455 658.2188,431.3955 Q657.7344,432.1455 657.7344,433.1768 L657.7344,434.2705 Q657.7344,435.5049 658.625,436.333 Q659.5156,437.1455 661.1094,437.1455 Q662.0469,437.1455 662.7031,436.8955 Q663.0938,436.7393 663.5156,436.3018 Q663.7813,436.0361 663.9219,435.958 Q664.0781,435.8799 664.2813,435.8799 Q664.6094,435.8799 664.8594,436.1455 Q665.125,436.3955 665.125,436.7393 Q665.125,437.083 664.7813,437.4893 Q664.2813,438.0674 663.4844,438.3955 Q662.4063,438.8486 661.1094,438.8486 Q659.5938,438.8486 658.3906,438.2236 Q657.4063,437.7236 656.7188,436.6611 Q656.0313,435.583 656.0313,434.3018 L656.0313,433.1455 Q656.0313,431.8174 656.6406,430.6768 Q657.2656,429.5205 658.3594,428.9111 Q659.4531,428.2861 660.6875,428.2861 Q661.4219,428.2861 662.0625,428.458 Q662.7188,428.6143 663.2656,428.9736 Z " fill="#000000"/><text fill="#000000" font-family="Arial" font-size="14" lengthAdjust="spacing" textLength="101.165" x="674.5" y="438.1812">EmployeeGroup</text><line style="stroke:#181818;stroke-width:0.5;" x1="646.5" x2="777.665" y1="449.0986" y2="449.0986"/><line style="stroke:#181818;stroke-width:0.5;" x1="646.5" x2="777.665" y1="457.0986" y2="457.0986"/></g><!--class ProfessionGroup--><g class="entity" data-qualified-name="Employee Domain.ProfessionGroup" data-source-line="18" id="ent0009"><rect fill="#F1F1F1" height="48" rx="2.5" ry="2.5" style="stroke:#181818;stroke-width:0.5;" width="137.0547" x="406.5" y="186.0986"/><ellipse cx="421.5" cy="202.0986" fill="#ADD1B2" rx="11" ry="11" style="stroke:#181818;stroke-width:1;"/><path d="M424.2656,197.9736 Q424.4219,197.7549 424.6094,197.6455 Q424.7969,197.5361 425.0156,197.5361 Q425.3906,197.5361 425.625,197.8018 Q425.8594,198.0518 425.8594,198.6611 L425.8594,200.1143 Q425.8594,200.7236 425.625,200.9893 Q425.3906,201.2549 425.0156,201.2549 Q424.6719,201.2549 424.4688,201.0518 Q424.2656,200.8643 424.1563,200.3486 Q424.1094,199.9893 423.9219,199.8018 Q423.5938,199.4268 422.9844,199.208 Q422.375,198.9893 421.75,198.9893 Q420.9844,198.9893 420.3438,199.3174 Q419.7188,199.6455 419.2188,200.3955 Q418.7344,201.1455 418.7344,202.1768 L418.7344,203.2705 Q418.7344,204.5049 419.625,205.333 Q420.5156,206.1455 422.1094,206.1455 Q423.0469,206.1455 423.7031,205.8955 Q424.0938,205.7393 424.5156,205.3018 Q424.7813,205.0361 424.9219,204.958 Q425.0781,204.8799 425.2813,204.8799 Q425.6094,204.8799 425.8594,205.1455 Q426.125,205.3955 426.125,205.7393 Q426.125,206.083 425.7813,206.4893 Q425.2813,207.0674 424.4844,207.3955 Q423.4063,207.8486 422.1094,207.8486 Q420.5938,207.8486 419.3906,207.2236 Q418.4063,206.7236 417.7188,205.6611 Q417.0313,204.583 417.0313,203.3018 L417.0313,202.1455 Q417.0313,200.8174 417.6406,199.6768 Q418.2656,198.5205 419.3594,197.9111 Q420.4531,197.2861 421.6875,197.2861 Q422.4219,197.2861 423.0625,197.458 Q423.7188,197.6143 424.2656,197.9736 Z " fill="#000000"/><text fill="#000000" font-family="Arial" font-size="14" lengthAdjust="spacing" textLength="105.0547" x="435.5" y="207.1812">ProfessionGroup</text><line style="stroke:#181818;stroke-width:0.5;" x1="407.5" x2="542.5547" y1="218.0986" y2="218.0986"/><line style="stroke:#181818;stroke-width:0.5;" x1="407.5" x2="542.5547" y1="226.0986" y2="226.0986"/></g><!--class EmployeePosition--><g class="entity" data-qualified-name="Employee Domain.EmployeePosition" data-source-line="19" id="ent0010"><rect fill="#F1F1F1" height="48" rx="2.5" ry="2.5" style="stroke:#181818;stroke-width:0.5;" width="144.0615" x="403" y="309.0986"/><ellipse cx="418" cy="325.0986" fill="#ADD1B2" rx="11" ry="11" style="stroke:#181818;stroke-width:1;"/><path d="M420.7656,320.9736 Q420.9219,320.7549 421.1094,320.6455 Q421.2969,320.5361 421.5156,320.5361 Q421.8906,320.5361 422.125,320.8018 Q422.3594,321.0518 422.3594,321.6611 L422.3594,323.1143 Q422.3594,323.7236 422.125,323.9893 Q421.8906,324.2549 421.5156,324.2549 Q421.1719,324.2549 420.9688,324.0518 Q420.7656,323.8643 420.6563,323.3486 Q420.6094,322.9893 420.4219,322.8018 Q420.0938,322.4268 419.4844,322.208 Q418.875,321.9893 418.25,321.9893 Q417.4844,321.9893 416.8438,322.3174 Q416.2188,322.6455 415.7188,323.3955 Q415.2344,324.1455 415.2344,325.1768 L415.2344,326.2705 Q415.2344,327.5049 416.125,328.333 Q417.0156,329.1455 418.6094,329.1455 Q419.5469,329.1455 420.2031,328.8955 Q420.5938,328.7393 421.0156,328.3018 Q421.2813,328.0361 421.4219,327.958 Q421.5781,327.8799 421.7813,327.8799 Q422.1094,327.8799 422.3594,328.1455 Q422.625,328.3955 422.625,328.7393 Q422.625,329.083 422.2813,329.4893 Q421.7813,330.0674 420.9844,330.3955 Q419.9063,330.8486 418.6094,330.8486 Q417.0938,330.8486 415.8906,330.2236 Q414.9063,329.7236 414.2188,328.6611 Q413.5313,327.583 413.5313,326.3018 L413.5313,325.1455 Q413.5313,323.8174 414.1406,322.6768 Q414.7656,321.5205 415.8594,320.9111 Q416.9531,320.2861 418.1875,320.2861 Q418.9219,320.2861 419.5625,320.458 Q420.2188,320.6143 420.7656,320.9736 Z " fill="#000000"/><text fill="#000000" font-family="Arial" font-size="14" lengthAdjust="spacing" textLength="112.0615" x="432" y="330.1812">EmployeePosition</text><line style="stroke:#181818;stroke-width:0.5;" x1="404" x2="546.0615" y1="341.0986" y2="341.0986"/><line style="stroke:#181818;stroke-width:0.5;" x1="404" x2="546.0615" y1="349.0986" y2="349.0986"/></g><!--class EmployeeRank--><g class="entity" data-qualified-name="Employee Domain.EmployeeRank" data-source-line="20" id="ent0011"><rect fill="#F1F1F1" height="48" rx="2.5" ry="2.5" style="stroke:#181818;stroke-width:0.5;" width="126.9375" x="804.5" y="309.0986"/><ellipse cx="819.5" cy="325.0986" fill="#ADD1B2" rx="11" ry="11" style="stroke:#181818;stroke-width:1;"/><path d="M822.2656,320.9736 Q822.4219,320.7549 822.6094,320.6455 Q822.7969,320.5361 823.0156,320.5361 Q823.3906,320.5361 823.625,320.8018 Q823.8594,321.0518 823.8594,321.6611 L823.8594,323.1143 Q823.8594,323.7236 823.625,323.9893 Q823.3906,324.2549 823.0156,324.2549 Q822.6719,324.2549 822.4688,324.0518 Q822.2656,323.8643 822.1563,323.3486 Q822.1094,322.9893 821.9219,322.8018 Q821.5938,322.4268 820.9844,322.208 Q820.375,321.9893 819.75,321.9893 Q818.9844,321.9893 818.3438,322.3174 Q817.7188,322.6455 817.2188,323.3955 Q816.7344,324.1455 816.7344,325.1768 L816.7344,326.2705 Q816.7344,327.5049 817.625,328.333 Q818.5156,329.1455 820.1094,329.1455 Q821.0469,329.1455 821.7031,328.8955 Q822.0938,328.7393 822.5156,328.3018 Q822.7813,328.0361 822.9219,327.958 Q823.0781,327.8799 823.2813,327.8799 Q823.6094,327.8799 823.8594,328.1455 Q824.125,328.3955 824.125,328.7393 Q824.125,329.083 823.7813,329.4893 Q823.2813,330.0674 822.4844,330.3955 Q821.4063,330.8486 820.1094,330.8486 Q818.5938,330.8486 817.3906,330.2236 Q816.4063,329.7236 815.7188,328.6611 Q815.0313,327.583 815.0313,326.3018 L815.0313,325.1455 Q815.0313,323.8174 815.6406,322.6768 Q816.2656,321.5205 817.3594,320.9111 Q818.4531,320.2861 819.6875,320.2861 Q820.4219,320.2861 821.0625,320.458 Q821.7188,320.6143 822.2656,320.9736 Z " fill="#000000"/><text fill="#000000" font-family="Arial" font-size="14" lengthAdjust="spacing" textLength="94.9375" x="833.5" y="330.1812">EmployeeRank</text><line style="stroke:#181818;stroke-width:0.5;" x1="805.5" x2="930.4375" y1="341.0986" y2="341.0986"/><line style="stroke:#181818;stroke-width:0.5;" x1="805.5" x2="930.4375" y1="349.0986" y2="349.0986"/></g><!--class Workplace--><g class="entity" data-qualified-name="Employee Domain.Workplace" data-source-line="21" id="ent0012"><rect fill="#F1F1F1" height="48" rx="2.5" ry="2.5" style="stroke:#181818;stroke-width:0.5;" width="98.1309" x="967" y="309.0986"/><ellipse cx="982" cy="325.0986" fill="#ADD1B2" rx="11" ry="11" style="stroke:#181818;stroke-width:1;"/><path d="M984.7656,320.9736 Q984.9219,320.7549 985.1094,320.6455 Q985.2969,320.5361 985.5156,320.5361 Q985.8906,320.5361 986.125,320.8018 Q986.3594,321.0518 986.3594,321.6611 L986.3594,323.1143 Q986.3594,323.7236 986.125,323.9893 Q985.8906,324.2549 985.5156,324.2549 Q985.1719,324.2549 984.9688,324.0518 Q984.7656,323.8643 984.6563,323.3486 Q984.6094,322.9893 984.4219,322.8018 Q984.0938,322.4268 983.4844,322.208 Q982.875,321.9893 982.25,321.9893 Q981.4844,321.9893 980.8438,322.3174 Q980.2188,322.6455 979.7188,323.3955 Q979.2344,324.1455 979.2344,325.1768 L979.2344,326.2705 Q979.2344,327.5049 980.125,328.333 Q981.0156,329.1455 982.6094,329.1455 Q983.5469,329.1455 984.2031,328.8955 Q984.5938,328.7393 985.0156,328.3018 Q985.2813,328.0361 985.4219,327.958 Q985.5781,327.8799 985.7813,327.8799 Q986.1094,327.8799 986.3594,328.1455 Q986.625,328.3955 986.625,328.7393 Q986.625,329.083 986.2813,329.4893 Q985.7813,330.0674 984.9844,330.3955 Q983.9063,330.8486 982.6094,330.8486 Q981.0938,330.8486 979.8906,330.2236 Q978.9063,329.7236 978.2188,328.6611 Q977.5313,327.583 977.5313,326.3018 L977.5313,325.1455 Q977.5313,323.8174 978.1406,322.6768 Q978.7656,321.5205 979.8594,320.9111 Q980.9531,320.2861 982.1875,320.2861 Q982.9219,320.2861 983.5625,320.458 Q984.2188,320.6143 984.7656,320.9736 Z " fill="#000000"/><text fill="#000000" font-family="Arial" font-size="14" lengthAdjust="spacing" textLength="66.1309" x="996" y="330.1812">Workplace</text><line style="stroke:#181818;stroke-width:0.5;" x1="968" x2="1064.1309" y1="341.0986" y2="341.0986"/><line style="stroke:#181818;stroke-width:0.5;" x1="968" x2="1064.1309" y1="349.0986" y2="349.0986"/></g><!--class EmployeeCareerHistory--><g class="entity" data-qualified-name="Employee Domain.EmployeeCareerHistory" data-source-line="22" id="ent0013"><rect fill="#F1F1F1" height="48" rx="2.5" ry="2.5" style="stroke:#181818;stroke-width:0.5;" width="180.6064" x="1100.5" y="309.0986"/><ellipse cx="1115.5" cy="325.0986" fill="#ADD1B2" rx="11" ry="11" style="stroke:#181818;stroke-width:1;"/><path d="M1118.2656,320.9736 Q1118.4219,320.7549 1118.6094,320.6455 Q1118.7969,320.5361 1119.0156,320.5361 Q1119.3906,320.5361 1119.625,320.8018 Q1119.8594,321.0518 1119.8594,321.6611 L1119.8594,323.1143 Q1119.8594,323.7236 1119.625,323.9893 Q1119.3906,324.2549 1119.0156,324.2549 Q1118.6719,324.2549 1118.4688,324.0518 Q1118.2656,323.8643 1118.1563,323.3486 Q1118.1094,322.9893 1117.9219,322.8018 Q1117.5938,322.4268 1116.9844,322.208 Q1116.375,321.9893 1115.75,321.9893 Q1114.9844,321.9893 1114.3438,322.3174 Q1113.7188,322.6455 1113.2188,323.3955 Q1112.7344,324.1455 1112.7344,325.1768 L1112.7344,326.2705 Q1112.7344,327.5049 1113.625,328.333 Q1114.5156,329.1455 1116.1094,329.1455 Q1117.0469,329.1455 1117.7031,328.8955 Q1118.0938,328.7393 1118.5156,328.3018 Q1118.7813,328.0361 1118.9219,327.958 Q1119.0781,327.8799 1119.2813,327.8799 Q1119.6094,327.8799 1119.8594,328.1455 Q1120.125,328.3955 1120.125,328.7393 Q1120.125,329.083 1119.7813,329.4893 Q1119.2813,330.0674 1118.4844,330.3955 Q1117.4063,330.8486 1116.1094,330.8486 Q1114.5938,330.8486 1113.3906,330.2236 Q1112.4063,329.7236 1111.7188,328.6611 Q1111.0313,327.583 1111.0313,326.3018 L1111.0313,325.1455 Q1111.0313,323.8174 1111.6406,322.6768 Q1112.2656,321.5205 1113.3594,320.9111 Q1114.4531,320.2861 1115.6875,320.2861 Q1116.4219,320.2861 1117.0625,320.458 Q1117.7188,320.6143 1118.2656,320.9736 Z " fill="#000000"/><text fill="#000000" font-family="Arial" font-size="14" lengthAdjust="spacing" textLength="148.6064" x="1129.5" y="330.1812">EmployeeCareerHistory</text><line style="stroke:#181818;stroke-width:0.5;" x1="1101.5" x2="1280.1064" y1="341.0986" y2="341.0986"/><line style="stroke:#181818;stroke-width:0.5;" x1="1101.5" x2="1280.1064" y1="349.0986" y2="349.0986"/></g><!--class DocumentType--><g class="entity" data-qualified-name="Document Domain.DocumentType" data-source-line="26" id="ent0015"><rect fill="#F1F1F1" height="48" rx="2.5" ry="2.5" style="stroke:#181818;stroke-width:0.5;" width="126.9307" x="1588.5" y="309.0986"/><ellipse cx="1603.5" cy="325.0986" fill="#ADD1B2" rx="11" ry="11" style="stroke:#181818;stroke-width:1;"/><path d="M1606.2656,320.9736 Q1606.4219,320.7549 1606.6094,320.6455 Q1606.7969,320.5361 1607.0156,320.5361 Q1607.3906,320.5361 1607.625,320.8018 Q1607.8594,321.0518 1607.8594,321.6611 L1607.8594,323.1143 Q1607.8594,323.7236 1607.625,323.9893 Q1607.3906,324.2549 1607.0156,324.2549 Q1606.6719,324.2549 1606.4688,324.0518 Q1606.2656,323.8643 1606.1563,323.3486 Q1606.1094,322.9893 1605.9219,322.8018 Q1605.5938,322.4268 1604.9844,322.208 Q1604.375,321.9893 1603.75,321.9893 Q1602.9844,321.9893 1602.3438,322.3174 Q1601.7188,322.6455 1601.2188,323.3955 Q1600.7344,324.1455 1600.7344,325.1768 L1600.7344,326.2705 Q1600.7344,327.5049 1601.625,328.333 Q1602.5156,329.1455 1604.1094,329.1455 Q1605.0469,329.1455 1605.7031,328.8955 Q1606.0938,328.7393 1606.5156,328.3018 Q1606.7813,328.0361 1606.9219,327.958 Q1607.0781,327.8799 1607.2813,327.8799 Q1607.6094,327.8799 1607.8594,328.1455 Q1608.125,328.3955 1608.125,328.7393 Q1608.125,329.083 1607.7813,329.4893 Q1607.2813,330.0674 1606.4844,330.3955 Q1605.4063,330.8486 1604.1094,330.8486 Q1602.5938,330.8486 1601.3906,330.2236 Q1600.4063,329.7236 1599.7188,328.6611 Q1599.0313,327.583 1599.0313,326.3018 L1599.0313,325.1455 Q1599.0313,323.8174 1599.6406,322.6768 Q1600.2656,321.5205 1601.3594,320.9111 Q1602.4531,320.2861 1603.6875,320.2861 Q1604.4219,320.2861 1605.0625,320.458 Q1605.7188,320.6143 1606.2656,320.9736 Z " fill="#000000"/><text fill="#000000" font-family="Arial" font-size="14" lengthAdjust="spacing" textLength="94.9307" x="1617.5" y="330.1812">DocumentType</text><line style="stroke:#181818;stroke-width:0.5;" x1="1589.5" x2="1714.4307" y1="341.0986" y2="341.0986"/><line style="stroke:#181818;stroke-width:0.5;" x1="1589.5" x2="1714.4307" y1="349.0986" y2="349.0986"/></g><!--class DocumentRecord--><g class="entity" data-qualified-name="Document Domain.DocumentRecord" data-source-line="27" id="ent0016"><rect fill="#F1F1F1" height="48" rx="2.5" ry="2.5" style="stroke:#181818;stroke-width:0.5;" width="140.9375" x="1572.5" y="417.0986"/><ellipse cx="1587.5" cy="433.0986" fill="#ADD1B2" rx="11" ry="11" style="stroke:#181818;stroke-width:1;"/><path d="M1590.2656,428.9736 Q1590.4219,428.7549 1590.6094,428.6455 Q1590.7969,428.5361 1591.0156,428.5361 Q1591.3906,428.5361 1591.625,428.8018 Q1591.8594,429.0518 1591.8594,429.6611 L1591.8594,431.1143 Q1591.8594,431.7236 1591.625,431.9893 Q1591.3906,432.2549 1591.0156,432.2549 Q1590.6719,432.2549 1590.4688,432.0518 Q1590.2656,431.8643 1590.1563,431.3486 Q1590.1094,430.9893 1589.9219,430.8018 Q1589.5938,430.4268 1588.9844,430.208 Q1588.375,429.9893 1587.75,429.9893 Q1586.9844,429.9893 1586.3438,430.3174 Q1585.7188,430.6455 1585.2188,431.3955 Q1584.7344,432.1455 1584.7344,433.1768 L1584.7344,434.2705 Q1584.7344,435.5049 1585.625,436.333 Q1586.5156,437.1455 1588.1094,437.1455 Q1589.0469,437.1455 1589.7031,436.8955 Q1590.0938,436.7393 1590.5156,436.3018 Q1590.7813,436.0361 1590.9219,435.958 Q1591.0781,435.8799 1591.2813,435.8799 Q1591.6094,435.8799 1591.8594,436.1455 Q1592.125,436.3955 1592.125,436.7393 Q1592.125,437.083 1591.7813,437.4893 Q1591.2813,438.0674 1590.4844,438.3955 Q1589.4063,438.8486 1588.1094,438.8486 Q1586.5938,438.8486 1585.3906,438.2236 Q1584.4063,437.7236 1583.7188,436.6611 Q1583.0313,435.583 1583.0313,434.3018 L1583.0313,433.1455 Q1583.0313,431.8174 1583.6406,430.6768 Q1584.2656,429.5205 1585.3594,428.9111 Q1586.4531,428.2861 1587.6875,428.2861 Q1588.4219,428.2861 1589.0625,428.458 Q1589.7188,428.6143 1590.2656,428.9736 Z " fill="#000000"/><text fill="#000000" font-family="Arial" font-size="14" lengthAdjust="spacing" textLength="108.9375" x="1601.5" y="438.1812">DocumentRecord</text><line style="stroke:#181818;stroke-width:0.5;" x1="1573.5" x2="1712.4375" y1="449.0986" y2="449.0986"/><line style="stroke:#181818;stroke-width:0.5;" x1="1573.5" x2="1712.4375" y1="457.0986" y2="457.0986"/></g><!--class VerificationHistory--><g class="entity" data-qualified-name="Document Domain.VerificationHistory" data-source-line="28" id="ent0017"><rect fill="#F1F1F1" height="48" rx="2.5" ry="2.5" style="stroke:#181818;stroke-width:0.5;" width="144.8135" x="1570.5" y="525.0986"/><ellipse cx="1585.5" cy="541.0986" fill="#ADD1B2" rx="11" ry="11" style="stroke:#181818;stroke-width:1;"/><path d="M1588.2656,536.9736 Q1588.4219,536.7549 1588.6094,536.6455 Q1588.7969,536.5361 1589.0156,536.5361 Q1589.3906,536.5361 1589.625,536.8018 Q1589.8594,537.0518 1589.8594,537.6611 L1589.8594,539.1143 Q1589.8594,539.7236 1589.625,539.9893 Q1589.3906,540.2549 1589.0156,540.2549 Q1588.6719,540.2549 1588.4688,540.0518 Q1588.2656,539.8643 1588.1563,539.3486 Q1588.1094,538.9893 1587.9219,538.8018 Q1587.5938,538.4268 1586.9844,538.208 Q1586.375,537.9893 1585.75,537.9893 Q1584.9844,537.9893 1584.3438,538.3174 Q1583.7188,538.6455 1583.2188,539.3955 Q1582.7344,540.1455 1582.7344,541.1768 L1582.7344,542.2705 Q1582.7344,543.5049 1583.625,544.333 Q1584.5156,545.1455 1586.1094,545.1455 Q1587.0469,545.1455 1587.7031,544.8955 Q1588.0938,544.7393 1588.5156,544.3018 Q1588.7813,544.0361 1588.9219,543.958 Q1589.0781,543.8799 1589.2813,543.8799 Q1589.6094,543.8799 1589.8594,544.1455 Q1590.125,544.3955 1590.125,544.7393 Q1590.125,545.083 1589.7813,545.4893 Q1589.2813,546.0674 1588.4844,546.3955 Q1587.4063,546.8486 1586.1094,546.8486 Q1584.5938,546.8486 1583.3906,546.2236 Q1582.4063,545.7236 1581.7188,544.6611 Q1581.0313,543.583 1581.0313,542.3018 L1581.0313,541.1455 Q1581.0313,539.8174 1581.6406,538.6768 Q1582.2656,537.5205 1583.3594,536.9111 Q1584.4531,536.2861 1585.6875,536.2861 Q1586.4219,536.2861 1587.0625,536.458 Q1587.7188,536.6143 1588.2656,536.9736 Z " fill="#000000"/><text fill="#000000" font-family="Arial" font-size="14" lengthAdjust="spacing" textLength="112.8135" x="1599.5" y="546.1812">VerificationHistory</text><line style="stroke:#181818;stroke-width:0.5;" x1="1571.5" x2="1714.3135" y1="557.0986" y2="557.0986"/><line style="stroke:#181818;stroke-width:0.5;" x1="1571.5" x2="1714.3135" y1="565.0986" y2="565.0986"/></g><!--class DocumentVerification--><g class="entity" data-qualified-name="Document Domain.DocumentVerification" data-source-line="29" id="ent0018"><rect fill="#F1F1F1" height="48" rx="2.5" ry="2.5" style="stroke:#181818;stroke-width:0.5;" width="165.0615" x="1388.5" y="309.0986"/><ellipse cx="1403.5" cy="325.0986" fill="#ADD1B2" rx="11" ry="11" style="stroke:#181818;stroke-width:1;"/><path d="M1406.2656,320.9736 Q1406.4219,320.7549 1406.6094,320.6455 Q1406.7969,320.5361 1407.0156,320.5361 Q1407.3906,320.5361 1407.625,320.8018 Q1407.8594,321.0518 1407.8594,321.6611 L1407.8594,323.1143 Q1407.8594,323.7236 1407.625,323.9893 Q1407.3906,324.2549 1407.0156,324.2549 Q1406.6719,324.2549 1406.4688,324.0518 Q1406.2656,323.8643 1406.1563,323.3486 Q1406.1094,322.9893 1405.9219,322.8018 Q1405.5938,322.4268 1404.9844,322.208 Q1404.375,321.9893 1403.75,321.9893 Q1402.9844,321.9893 1402.3438,322.3174 Q1401.7188,322.6455 1401.2188,323.3955 Q1400.7344,324.1455 1400.7344,325.1768 L1400.7344,326.2705 Q1400.7344,327.5049 1401.625,328.333 Q1402.5156,329.1455 1404.1094,329.1455 Q1405.0469,329.1455 1405.7031,328.8955 Q1406.0938,328.7393 1406.5156,328.3018 Q1406.7813,328.0361 1406.9219,327.958 Q1407.0781,327.8799 1407.2813,327.8799 Q1407.6094,327.8799 1407.8594,328.1455 Q1408.125,328.3955 1408.125,328.7393 Q1408.125,329.083 1407.7813,329.4893 Q1407.2813,330.0674 1406.4844,330.3955 Q1405.4063,330.8486 1404.1094,330.8486 Q1402.5938,330.8486 1401.3906,330.2236 Q1400.4063,329.7236 1399.7188,328.6611 Q1399.0313,327.583 1399.0313,326.3018 L1399.0313,325.1455 Q1399.0313,323.8174 1399.6406,322.6768 Q1400.2656,321.5205 1401.3594,320.9111 Q1402.4531,320.2861 1403.6875,320.2861 Q1404.4219,320.2861 1405.0625,320.458 Q1405.7188,320.6143 1406.2656,320.9736 Z " fill="#000000"/><text fill="#000000" font-family="Arial" font-size="14" lengthAdjust="spacing" textLength="133.0615" x="1417.5" y="330.1812">DocumentVerification</text><line style="stroke:#181818;stroke-width:0.5;" x1="1389.5" x2="1552.5615" y1="341.0986" y2="341.0986"/><line style="stroke:#181818;stroke-width:0.5;" x1="1389.5" x2="1552.5615" y1="349.0986" y2="349.0986"/></g><!--class Notification--><g class="entity" data-qualified-name="System Domain.Notification" data-source-line="33" id="ent0020"><rect fill="#F1F1F1" height="48" rx="2.5" ry="2.5" style="stroke:#181818;stroke-width:0.5;" width="101.2549" x="2120.5" y="186.0986"/><ellipse cx="2135.5" cy="202.0986" fill="#ADD1B2" rx="11" ry="11" style="stroke:#181818;stroke-width:1;"/><path d="M2138.2656,197.9736 Q2138.4219,197.7549 2138.6094,197.6455 Q2138.7969,197.5361 2139.0156,197.5361 Q2139.3906,197.5361 2139.625,197.8018 Q2139.8594,198.0518 2139.8594,198.6611 L2139.8594,200.1143 Q2139.8594,200.7236 2139.625,200.9893 Q2139.3906,201.2549 2139.0156,201.2549 Q2138.6719,201.2549 2138.4688,201.0518 Q2138.2656,200.8643 2138.1563,200.3486 Q2138.1094,199.9893 2137.9219,199.8018 Q2137.5938,199.4268 2136.9844,199.208 Q2136.375,198.9893 2135.75,198.9893 Q2134.9844,198.9893 2134.3438,199.3174 Q2133.7188,199.6455 2133.2188,200.3955 Q2132.7344,201.1455 2132.7344,202.1768 L2132.7344,203.2705 Q2132.7344,204.5049 2133.625,205.333 Q2134.5156,206.1455 2136.1094,206.1455 Q2137.0469,206.1455 2137.7031,205.8955 Q2138.0938,205.7393 2138.5156,205.3018 Q2138.7813,205.0361 2138.9219,204.958 Q2139.0781,204.8799 2139.2813,204.8799 Q2139.6094,204.8799 2139.8594,205.1455 Q2140.125,205.3955 2140.125,205.7393 Q2140.125,206.083 2139.7813,206.4893 Q2139.2813,207.0674 2138.4844,207.3955 Q2137.4063,207.8486 2136.1094,207.8486 Q2134.5938,207.8486 2133.3906,207.2236 Q2132.4063,206.7236 2131.7188,205.6611 Q2131.0313,204.583 2131.0313,203.3018 L2131.0313,202.1455 Q2131.0313,200.8174 2131.6406,199.6768 Q2132.2656,198.5205 2133.3594,197.9111 Q2134.4531,197.2861 2135.6875,197.2861 Q2136.4219,197.2861 2137.0625,197.458 Q2137.7188,197.6143 2138.2656,197.9736 Z " fill="#000000"/><text fill="#000000" font-family="Arial" font-size="14" lengthAdjust="spacing" textLength="69.2549" x="2149.5" y="207.1812">Notification</text><line style="stroke:#181818;stroke-width:0.5;" x1="2121.5" x2="2220.7549" y1="218.0986" y2="218.0986"/><line style="stroke:#181818;stroke-width:0.5;" x1="2121.5" x2="2220.7549" y1="226.0986" y2="226.0986"/></g><!--class SecurityLog--><g class="entity" data-qualified-name="System Domain.SecurityLog" data-source-line="34" id="ent0021"><rect fill="#F1F1F1" height="48" rx="2.5" ry="2.5" style="stroke:#181818;stroke-width:0.5;" width="105.9307" x="1979" y="186.0986"/><ellipse cx="1994" cy="202.0986" fill="#ADD1B2" rx="11" ry="11" style="stroke:#181818;stroke-width:1;"/><path d="M1996.7656,197.9736 Q1996.9219,197.7549 1997.1094,197.6455 Q1997.2969,197.5361 1997.5156,197.5361 Q1997.8906,197.5361 1998.125,197.8018 Q1998.3594,198.0518 1998.3594,198.6611 L1998.3594,200.1143 Q1998.3594,200.7236 1998.125,200.9893 Q1997.8906,201.2549 1997.5156,201.2549 Q1997.1719,201.2549 1996.9688,201.0518 Q1996.7656,200.8643 1996.6563,200.3486 Q1996.6094,199.9893 1996.4219,199.8018 Q1996.0938,199.4268 1995.4844,199.208 Q1994.875,198.9893 1994.25,198.9893 Q1993.4844,198.9893 1992.8438,199.3174 Q1992.2188,199.6455 1991.7188,200.3955 Q1991.2344,201.1455 1991.2344,202.1768 L1991.2344,203.2705 Q1991.2344,204.5049 1992.125,205.333 Q1993.0156,206.1455 1994.6094,206.1455 Q1995.5469,206.1455 1996.2031,205.8955 Q1996.5938,205.7393 1997.0156,205.3018 Q1997.2813,205.0361 1997.4219,204.958 Q1997.5781,204.8799 1997.7813,204.8799 Q1998.1094,204.8799 1998.3594,205.1455 Q1998.625,205.3955 1998.625,205.7393 Q1998.625,206.083 1998.2813,206.4893 Q1997.7813,207.0674 1996.9844,207.3955 Q1995.9063,207.8486 1994.6094,207.8486 Q1993.0938,207.8486 1991.8906,207.2236 Q1990.9063,206.7236 1990.2188,205.6611 Q1989.5313,204.583 1989.5313,203.3018 L1989.5313,202.1455 Q1989.5313,200.8174 1990.1406,199.6768 Q1990.7656,198.5205 1991.8594,197.9111 Q1992.9531,197.2861 1994.1875,197.2861 Q1994.9219,197.2861 1995.5625,197.458 Q1996.2188,197.6143 1996.7656,197.9736 Z " fill="#000000"/><text fill="#000000" font-family="Arial" font-size="14" lengthAdjust="spacing" textLength="73.9307" x="2008" y="207.1812">SecurityLog</text><line style="stroke:#181818;stroke-width:0.5;" x1="1980" x2="2083.9307" y1="218.0986" y2="218.0986"/><line style="stroke:#181818;stroke-width:0.5;" x1="1980" x2="2083.9307" y1="226.0986" y2="226.0986"/></g><!--class SystemSetting--><g class="entity" data-qualified-name="System Domain.SystemSetting" data-source-line="35" id="ent0022"><rect fill="#F1F1F1" height="48" rx="2.5" ry="2.5" style="stroke:#181818;stroke-width:0.5;" width="122.2617" x="1822" y="186.0986"/><ellipse cx="1837" cy="202.0986" fill="#ADD1B2" rx="11" ry="11" style="stroke:#181818;stroke-width:1;"/><path d="M1839.7656,197.9736 Q1839.9219,197.7549 1840.1094,197.6455 Q1840.2969,197.5361 1840.5156,197.5361 Q1840.8906,197.5361 1841.125,197.8018 Q1841.3594,198.0518 1841.3594,198.6611 L1841.3594,200.1143 Q1841.3594,200.7236 1841.125,200.9893 Q1840.8906,201.2549 1840.5156,201.2549 Q1840.1719,201.2549 1839.9688,201.0518 Q1839.7656,200.8643 1839.6563,200.3486 Q1839.6094,199.9893 1839.4219,199.8018 Q1839.0938,199.4268 1838.4844,199.208 Q1837.875,198.9893 1837.25,198.9893 Q1836.4844,198.9893 1835.8438,199.3174 Q1835.2188,199.6455 1834.7188,200.3955 Q1834.2344,201.1455 1834.2344,202.1768 L1834.2344,203.2705 Q1834.2344,204.5049 1835.125,205.333 Q1836.0156,206.1455 1837.6094,206.1455 Q1838.5469,206.1455 1839.2031,205.8955 Q1839.5938,205.7393 1840.0156,205.3018 Q1840.2813,205.0361 1840.4219,204.958 Q1840.5781,204.8799 1840.7813,204.8799 Q1841.1094,204.8799 1841.3594,205.1455 Q1841.625,205.3955 1841.625,205.7393 Q1841.625,206.083 1841.2813,206.4893 Q1840.7813,207.0674 1839.9844,207.3955 Q1838.9063,207.8486 1837.6094,207.8486 Q1836.0938,207.8486 1834.8906,207.2236 Q1833.9063,206.7236 1833.2188,205.6611 Q1832.5313,204.583 1832.5313,203.3018 L1832.5313,202.1455 Q1832.5313,200.8174 1833.1406,199.6768 Q1833.7656,198.5205 1834.8594,197.9111 Q1835.9531,197.2861 1837.1875,197.2861 Q1837.9219,197.2861 1838.5625,197.458 Q1839.2188,197.6143 1839.7656,197.9736 Z " fill="#000000"/><text fill="#000000" font-family="Arial" font-size="14" lengthAdjust="spacing" textLength="90.2617" x="1851" y="207.1812">SystemSetting</text><line style="stroke:#181818;stroke-width:0.5;" x1="1823" x2="1943.2617" y1="218.0986" y2="218.0986"/><line style="stroke:#181818;stroke-width:0.5;" x1="1823" x2="1943.2617" y1="226.0986" y2="226.0986"/></g><!--link User to Employee--><g class="link" data-entity-1="ent0002" data-entity-2="ent0006" data-link-type="association" data-source-line="38" id="lnk23"><path codeLine="38" d="M347.26,114.0986 C464.03,114.0986 868,114.0986 868,114.0986 C868,114.0986 868,157.4386 868,185.8786" fill="none" id="User-Employee" style="stroke:#181818;stroke-width:1;"/><text fill="#000000" font-family="Arial" font-size="13" lengthAdjust="spacing" textLength="59.979" x="583.52" y="111.2925">has profile</text><text fill="#000000" font-family="Arial" font-size="13" lengthAdjust="spacing" textLength="7.23" x="354.4985" y="130.3091">1</text><text fill="#000000" font-family="Arial" font-size="13" lengthAdjust="spacing" textLength="21.6836" x="844.1072" y="175.4253">0..1</text></g><!--link User to RefreshToken--><g class="link" data-entity-1="ent0002" data-entity-2="ent0003" data-link-type="association" data-source-line="39" id="lnk24"><path codeLine="39" d="M284.93,102.0986 C221.27,102.0986 82,102.0986 82,102.0986 C82,102.0986 82,154.0186 82,185.8586" fill="none" id="User-RefreshToken" style="stroke:#181818;stroke-width:1;"/><text fill="#000000" font-family="Arial" font-size="13" lengthAdjust="spacing" textLength="7.23" x="269.5854" y="98.7019">1</text><text fill="#000000" font-family="Arial" font-size="13" lengthAdjust="spacing" textLength="19.5127" x="60.41" y="175.3996">0..*</text></g><!--link User to PasswordResetToken--><g class="link" data-entity-1="ent0002" data-entity-2="ent0004" data-link-type="association" data-source-line="40" id="lnk25"><path codeLine="40" d="M315.75,126.3386 C315.75,144.1186 315.75,168.1786 315.75,185.9386" fill="none" id="User-PasswordResetToken" style="stroke:#181818;stroke-width:1;"/><text fill="#000000" font-family="Arial" font-size="13" lengthAdjust="spacing" textLength="7.23" x="307.9178" y="146.2629">1</text><text fill="#000000" font-family="Arial" font-size="13" lengthAdjust="spacing" textLength="19.5127" x="309.2743" y="175.5021">0..*</text></g><!--link User to Notification--><g class="link" data-entity-1="ent0002" data-entity-2="ent0020" data-link-type="association" data-source-line="41" id="lnk26"><path codeLine="41" d="M347.03,90.0986 C589.51,90.0986 2171,90.0986 2171,90.0986 C2171,90.0986 2171,150.7486 2171,185.8186" fill="none" id="User-Notification" style="stroke:#181818;stroke-width:1;"/><text fill="#000000" font-family="Arial" font-size="13" lengthAdjust="spacing" textLength="7.23" x="354.6569" y="84.24">1</text><text fill="#000000" font-family="Arial" font-size="13" lengthAdjust="spacing" textLength="19.5127" x="2149.3644" y="175.3484">0..*</text></g><!--link Employee to EmploymentStatus--><g class="link" data-entity-1="ent0006" data-entity-2="ent0007" data-link-type="association" data-source-line="43" id="lnk27"><path codeLine="43" d="M820.91,210.0986 C758.72,210.0986 657,210.0986 657,210.0986 C657,210.0986 657,273.2986 657,309.0886" fill="none" id="Employee-EmploymentStatus" style="stroke:#181818;stroke-width:1;"/><text fill="#000000" font-family="Arial" font-size="13" lengthAdjust="spacing" textLength="5.0591" x="807.991" y="207.2525">*</text><text fill="#000000" font-family="Arial" font-size="13" lengthAdjust="spacing" textLength="21.6836" x="632.9432" y="298.3126">0..1</text></g><!--link Employee to EmployeeGroup--><g class="link" data-entity-1="ent0006" data-entity-2="ent0008" data-link-type="association" data-source-line="44" id="lnk28"><path codeLine="44" d="M820.73,222.0986 C789.77,222.0986 755,222.0986 755,222.0986 C755,222.0986 755,359.8086 755,416.8286" fill="none" id="Employee-EmployeeGroup" style="stroke:#181818;stroke-width:1;"/><text fill="#000000" font-family="Arial" font-size="13" lengthAdjust="spacing" textLength="5.0591" x="808.094" y="237.2745">*</text><text fill="#000000" font-family="Arial" font-size="13" lengthAdjust="spacing" textLength="21.6836" x="743.2135" y="406.3612">0..1</text></g><!--link Employee to EmployeePosition--><g class="link" data-entity-1="ent0006" data-entity-2="ent0010" data-link-type="association" data-source-line="45" id="lnk29"><path codeLine="45" d="M820.95,198.0986 C735.77,198.0986 564.75,198.0986 564.75,198.0986 C564.75,198.0986 564.75,333.0986 564.75,333.0986 C564.75,333.0986 557.45,333.0986 547.02,333.0986" fill="none" id="Employee-EmployeePosition" style="stroke:#181818;stroke-width:1;"/><text fill="#000000" font-family="Arial" font-size="13" lengthAdjust="spacing" textLength="5.0591" x="808.0374" y="193.34">*</text><text fill="#000000" font-family="Arial" font-size="13" lengthAdjust="spacing" textLength="21.6836" x="555.1737" y="330.6501">0..1</text></g><!--link Employee to EmployeeRank--><g class="link" data-entity-1="ent0006" data-entity-2="ent0011" data-link-type="association" data-source-line="46" id="lnk30"><path codeLine="46" d="M868,234.1086 C868,255.6386 868,287.0886 868,308.7286" fill="none" id="Employee-EmployeeRank" style="stroke:#181818;stroke-width:1;"/><text fill="#000000" font-family="Arial" font-size="13" lengthAdjust="spacing" textLength="5.0591" x="862.3343" y="254.3703">*</text><text fill="#000000" font-family="Arial" font-size="13" lengthAdjust="spacing" textLength="21.6836" x="844.1518" y="298.2331">0..1</text></g><!--link Employee to Workplace--><g class="link" data-entity-1="ent0006" data-entity-2="ent0012" data-link-type="association" data-source-line="47" id="lnk31"><path codeLine="47" d="M915.24,225.0986 C958.55,225.0986 1016,225.0986 1016,225.0986 C1016,225.0986 1016,277.0186 1016,308.8586" fill="none" id="Employee-Workplace" style="stroke:#181818;stroke-width:1;"/><text fill="#000000" font-family="Arial" font-size="13" lengthAdjust="spacing" textLength="5.0591" x="923.1517" y="240.8743">*</text><text fill="#000000" font-family="Arial" font-size="13" lengthAdjust="spacing" textLength="21.6836" x="992.1246" y="298.3996">0..1</text></g><!--link Employee to EmployeeCareerHistory--><g class="link" data-entity-1="ent0006" data-entity-2="ent0013" data-link-type="association" data-source-line="48" id="lnk32"><path codeLine="48" d="M915.31,215.0986 C1005.03,215.0986 1191,215.0986 1191,215.0986 C1191,215.0986 1191,274.4086 1191,308.9386" fill="none" id="Employee-EmployeeCareerHistory" style="stroke:#181818;stroke-width:1;"/><text fill="#000000" font-family="Arial" font-size="13" lengthAdjust="spacing" textLength="7.23" x="923.4059" y="213.0493">1</text><text fill="#000000" font-family="Arial" font-size="13" lengthAdjust="spacing" textLength="19.5127" x="1169.4556" y="298.5021">0..*</text></g><!--link Employee to DocumentRecord--><g class="link" data-entity-1="ent0006" data-entity-2="ent0016" data-link-type="association" data-source-line="49" id="lnk33"><path codeLine="49" d="M915.02,196.0986 C1073.85,196.0986 1580.5,196.0986 1580.5,196.0986 C1580.5,196.0986 1580.5,354.7386 1580.5,416.7086" fill="none" id="Employee-DocumentRecord" style="stroke:#181818;stroke-width:1;"/><text fill="#000000" font-family="Arial" font-size="13" lengthAdjust="spacing" textLength="30.3481" x="1327.07" y="193.2925">owns</text><text fill="#000000" font-family="Arial" font-size="13" lengthAdjust="spacing" textLength="7.23" x="923.3853" y="190.8929">1</text><text fill="#000000" font-family="Arial" font-size="13" lengthAdjust="spacing" textLength="19.5127" x="1544.9165" y="407.7532">0..*</text></g><!--link Employee to DocumentVerification--><g class="link" data-entity-1="ent0006" data-entity-2="ent0018" data-link-type="association" data-source-line="50" id="lnk34"><path codeLine="50" d="M915.32,206.0986 C1057.47,206.0986 1471,206.0986 1471,206.0986 C1471,206.0986 1471,272.0686 1471,308.9086" fill="none" id="Employee-DocumentVerification" style="stroke:#181818;stroke-width:1;"/><text fill="#000000" font-family="Arial" font-size="13" lengthAdjust="spacing" textLength="7.23" x="923.0999" y="218.8245">1</text><text fill="#000000" font-family="Arial" font-size="13" lengthAdjust="spacing" textLength="19.5127" x="1449.3916" y="298.4637">0..*</text></g><!--link EmploymentStatus to EmployeeGroup--><g class="link" data-entity-1="ent0007" data-entity-2="ent0008" data-link-type="association" data-source-line="52" id="lnk35"><path codeLine="52" d="M688.5,357.3386 C688.5,375.1186 688.5,399.1786 688.5,416.9386" fill="none" id="EmploymentStatus-EmployeeGroup" style="stroke:#181818;stroke-width:1;"/><text fill="#000000" font-family="Arial" font-size="13" lengthAdjust="spacing" textLength="7.23" x="688.2926" y="377.2629">1</text><text fill="#000000" font-family="Arial" font-size="13" lengthAdjust="spacing" textLength="19.5127" x="660.2676" y="406.5021">0..*</text></g><!--link ProfessionGroup to EmployeePosition--><g class="link" data-entity-1="ent0009" data-entity-2="ent0010" data-link-type="association" data-source-line="53" id="lnk36"><path codeLine="53" d="M475,234.1086 C475,255.6386 475,287.0886 475,308.7286" fill="none" id="ProfessionGroup-EmployeePosition" style="stroke:#181818;stroke-width:1;"/><text fill="#000000" font-family="Arial" font-size="13" lengthAdjust="spacing" textLength="7.23" x="467.1256" y="254.3703">1</text><text fill="#000000" font-family="Arial" font-size="13" lengthAdjust="spacing" textLength="19.5127" x="453.3916" y="298.2331">0..*</text></g><!--link DocumentType to DocumentRecord--><g class="link" data-entity-1="ent0015" data-entity-2="ent0016" data-link-type="association" data-source-line="55" id="lnk37"><path codeLine="55" d="M1651,357.3386 C1651,375.1186 1651,399.1786 1651,416.9386" fill="none" id="DocumentType-DocumentRecord" style="stroke:#181818;stroke-width:1;"/><text fill="#000000" font-family="Arial" font-size="13" lengthAdjust="spacing" textLength="7.23" x="1642.9396" y="377.2629">1</text><text fill="#000000" font-family="Arial" font-size="13" lengthAdjust="spacing" textLength="19.5127" x="1631.659" y="406.5021">0..*</text></g><!--link DocumentRecord to VerificationHistory--><g class="link" data-entity-1="ent0016" data-entity-2="ent0017" data-link-type="association" data-source-line="56" id="lnk38"><path codeLine="56" d="M1643,465.3386 C1643,483.1186 1643,507.1786 1643,524.9386" fill="none" id="DocumentRecord-VerificationHistory" style="stroke:#181818;stroke-width:1;"/><text fill="#000000" font-family="Arial" font-size="13" lengthAdjust="spacing" textLength="7.23" x="1635.1825" y="485.2629">1</text><text fill="#000000" font-family="Arial" font-size="13" lengthAdjust="spacing" textLength="19.5127" x="1621.4265" y="514.5021">0..*</text></g><!--link User to VerificationHistory--><g class="link" data-entity-1="ent0002" data-entity-2="ent0017" data-link-type="association" data-source-line="57" id="lnk39"><path codeLine="57" d="M347.4,102.0986 C475.18,102.0986 949.25,102.0986 949.25,102.0986 C949.25,102.0986 949.25,549.0986 949.25,549.0986 C949.25,549.0986 1392.49,549.0986 1570.39,549.0986" fill="none" id="User-VerificationHistory" style="stroke:#181818;stroke-width:1;"/><text fill="#000000" font-family="Arial" font-size="13" lengthAdjust="spacing" textLength="44.0654" x="927.25" y="348.4425">reviews</text><text fill="#000000" font-family="Arial" font-size="13" lengthAdjust="spacing" textLength="7.23" x="354.6674" y="98.9466">1</text><text fill="#000000" font-family="Arial" font-size="13" lengthAdjust="spacing" textLength="19.5127" x="1542.9585" y="546.6195">0..*</text></g><?plantuml-src XLHDRvj04BtlhnXnQYCvIg-zMN4_8YMf1Mbxtk31h80Tj3F4ebN_UnSduCLUnnmGlFUMUJFx5gwCRRNJ3UIrPbwAEFFS2TxbP3Fp1-56yIJXKczeP-mM2bqp1im62ztLyfMiFEe6OUcChWE-DXQbRn78IKbAYP4Q8RjxMArX0RT3QLXHeus57o_eNWpku4EA7ZUmjABT6_jHgLRdbTuY9CjEoZSuWRyA_BNl0Nuokk0rnS8XbqzKeGtWjR_jo6rIP9HNyb_mzIzDMrEF6AqmaYTGWrOoqT9nHFtDKTU63XmLo6p87ZFZYZMn4Sz7g5JRAe1_awlQMkSOaTvgX-Y-6nPo_Qp95UNTO3dQv4W--NsBm2dcVde1yGkTAKok1yDZiTDbeMhc9UjPi8awUIGvh3d06UQTCzBVqpP4zz_9KCG7TQWmn06IJmai5f3SN5_xfsbpFqEf6Lg_4QR64-LLCWzFX8-aAAAQDQ2cwidLgQaWGU_gnZXT44q9kg3Rn-cCvf2jWs3MNZnePyJp_FWTe9tbI-9PQjJnfCxOUHtGqIaxevtcfCBOlsjT7NKoryPEGoGP4PaVYSFX3yZgFm00?></g></svg>