<svg xmlns="http://www.w3.org/2000/svg" xmlns:xlink="http://www.w3.org/1999/xlink" contentStyleType="text/css" data-diagram-type="DESCRIPTION" height="868px" preserveAspectRatio="none" style="width:1168px;height:868px;background:#FFFFFF;" version="1.1" viewBox="0 0 1168 868" width="1168px" zoomAndPan="magnify"><?plantuml 1.2026.6?><defs/><g><g class="title" data-source-line="5"><text fill="#000000" font-family="Arial" font-size="14" font-weight="700" lengthAdjust="spacing" textLength="350.0068" x="405.5178" y="23.1318">SIMDP - Component: Frontend &amp; Backend Data Flow</text></g><!--cluster Frontend (Browser)--><g class="cluster" data-qualified-name="Frontend .Browser." data-source-line="7" id="ent0001"><path d="M8.5,43.0986 L139.3896,43.0986 A3.75,3.75 0 0 1 141.8896,45.5986 L148.8896,65.1973 L382.5,65.1973 A2.5,2.5 0 0 1 385,67.6973 L385,415.0986 A2.5,2.5 0 0 1 382.5,417.5986 L8.5,417.5986 A2.5,2.5 0 0 1 6,415.0986 L6,45.5986 A2.5,2.5 0 0 1 8.5,43.0986" fill="none" style="stroke:#000000;stroke-width:1.5;"/><line style="stroke:#000000;stroke-width:1.5;" x1="6" x2="148.8896" y1="65.1973" y2="65.1973"/><text fill="#000000" font-family="Arial" font-size="14" font-weight="700" lengthAdjust="spacing" textLength="129.8896" x="10" y="58.2305">Frontend (Browser)</text></g><!--cluster Next.js Server--><g class="cluster" data-qualified-name="Next.js Server" data-source-line="14" id="ent0006"><path d="M411.5,312.5986 L505.8926,312.5986 A3.75,3.75 0 0 1 508.3926,315.0986 L515.3926,334.6973 L733.5,334.6973 A2.5,2.5 0 0 1 736,337.1973 L736,572.5986 A2.5,2.5 0 0 1 733.5,575.0986 L411.5,575.0986 A2.5,2.5 0 0 1 409,572.5986 L409,315.0986 A2.5,2.5 0 0 1 411.5,312.5986" fill="none" style="stroke:#000000;stroke-width:1.5;"/><line style="stroke:#000000;stroke-width:1.5;" x1="409" x2="515.3926" y1="334.6973" y2="334.6973"/><text fill="#000000" font-family="Arial" font-size="14" font-weight="700" lengthAdjust="spacing" textLength="93.3926" x="413" y="327.7305">Next.js Server</text></g><!--cluster Module Service Layer--><g class="cluster" data-qualified-name="Module Service Layer" data-source-line="20" id="ent0010"><path d="M597.5,623.0986 L742.4512,623.0986 A3.75,3.75 0 0 1 744.9512,625.5986 L751.9512,645.1973 L751.5,645.1973 A2.5,2.5 0 0 1 754,647.6973 L754,717.5986 A2.5,2.5 0 0 1 751.5,720.0986 L597.5,720.0986 A2.5,2.5 0 0 1 595,717.5986 L595,625.5986 A2.5,2.5 0 0 1 597.5,623.0986" fill="none" style="stroke:#000000;stroke-width:1.5;"/><line style="stroke:#000000;stroke-width:1.5;" x1="595" x2="751.9512" y1="645.1973" y2="645.1973"/><text fill="#000000" font-family="Arial" font-size="14" font-weight="700" lengthAdjust="spacing" textLength="143.9512" x="599" y="638.2305">Module Service Layer</text></g><!--entity RSCPage--><g class="entity" data-qualified-name="Frontend .Browser..RSCPage" data-source-line="8" id="ent0002"><rect fill="#F1F1F1" height="46.0986" rx="2.5" ry="2.5" style="stroke:#181818;stroke-width:0.5;" width="159.8477" x="209" y="78.0986"/><rect fill="#F1F1F1" height="10" style="stroke:#181818;stroke-width:0.5;" width="15" x="348.8477" y="83.0986"/><rect fill="#F1F1F1" height="2" style="stroke:#181818;stroke-width:0.5;" width="4" x="346.8477" y="85.0986"/><rect fill="#F1F1F1" height="2" style="stroke:#181818;stroke-width:0.5;" width="4" x="346.8477" y="89.0986"/><text fill="#000000" font-family="Arial" font-size="14" lengthAdjust="spacing" textLength="119.8477" x="224" y="111.2305">RSC Page / Layout</text></g><!--entity CC--><g class="entity" data-qualified-name="Frontend .Browser..CC" data-source-line="9" id="ent0003"><rect fill="#F1F1F1" height="46.0986" rx="2.5" ry="2.5" style="stroke:#181818;stroke-width:0.5;" width="152.0615" x="22" y="78.0986"/><rect fill="#F1F1F1" height="10" style="stroke:#181818;stroke-width:0.5;" width="15" x="154.0615" y="83.0986"/><rect fill="#F1F1F1" height="2" style="stroke:#181818;stroke-width:0.5;" width="4" x="152.0615" y="85.0986"/><rect fill="#F1F1F1" height="2" style="stroke:#181818;stroke-width:0.5;" width="4" x="152.0615" y="89.0986"/><text fill="#000000" font-family="Arial" font-size="14" lengthAdjust="spacing" textLength="112.0615" x="37" y="111.2305">Client Component</text></g><!--entity Hooks--><g class="entity" data-qualified-name="Frontend .Browser..Hooks" data-source-line="10" id="ent0004"><rect fill="#F1F1F1" height="46.0986" rx="2.5" ry="2.5" style="stroke:#181818;stroke-width:0.5;" width="206.5029" x="92.5" y="204.5986"/><rect fill="#F1F1F1" height="10" style="stroke:#181818;stroke-width:0.5;" width="15" x="279.0029" y="209.5986"/><rect fill="#F1F1F1" height="2" style="stroke:#181818;stroke-width:0.5;" width="4" x="277.0029" y="211.5986"/><rect fill="#F1F1F1" height="2" style="stroke:#181818;stroke-width:0.5;" width="4" x="277.0029" y="215.5986"/><text fill="#000000" font-family="Arial" font-size="14" lengthAdjust="spacing" textLength="166.5029" x="107.5" y="237.7305">hooks.ts (TanStack Query)</text></g><!--entity APIClient--><g class="entity" data-qualified-name="Frontend .Browser..APIClient" data-source-line="11" id="ent0005"><rect fill="#F1F1F1" height="46.0986" rx="2.5" ry="2.5" style="stroke:#181818;stroke-width:0.5;" width="171.4961" x="175.5" y="355.5986"/><rect fill="#F1F1F1" height="10" style="stroke:#181818;stroke-width:0.5;" width="15" x="326.9961" y="360.5986"/><rect fill="#F1F1F1" height="2" style="stroke:#181818;stroke-width:0.5;" width="4" x="324.9961" y="362.5986"/><rect fill="#F1F1F1" height="2" style="stroke:#181818;stroke-width:0.5;" width="4" x="324.9961" y="366.5986"/><text fill="#000000" font-family="Arial" font-size="14" lengthAdjust="spacing" textLength="131.4961" x="190.5" y="388.7305">api.ts (fetch wrapper)</text></g><!--entity SA--><g class="entity" data-qualified-name="Next.js Server.SA" data-source-line="15" id="ent0007"><rect fill="#F1F1F1" height="62.1973" rx="2.5" ry="2.5" style="stroke:#181818;stroke-width:0.5;" width="124.0342" x="596" y="347.5986"/><rect fill="#F1F1F1" height="10" style="stroke:#181818;stroke-width:0.5;" width="15" x="700.0342" y="352.5986"/><rect fill="#F1F1F1" height="2" style="stroke:#181818;stroke-width:0.5;" width="4" x="698.0342" y="354.5986"/><rect fill="#F1F1F1" height="2" style="stroke:#181818;stroke-width:0.5;" width="4" x="698.0342" y="358.5986"/><text fill="#000000" font-family="Arial" font-size="14" lengthAdjust="spacing" textLength="84.0342" x="611" y="380.7305">Server Action</text><text fill="#000000" font-family="Arial" font-size="14" lengthAdjust="spacing" textLength="68.4619" x="611" y="396.8291">(actions.ts)</text></g><!--entity RH--><g class="entity" data-qualified-name="Next.js Server.RH" data-source-line="16" id="ent0008"><rect fill="#F1F1F1" height="62.1973" rx="2.5" ry="2.5" style="stroke:#181818;stroke-width:0.5;" width="130.2754" x="450" y="497.0986"/><rect fill="#F1F1F1" height="10" style="stroke:#181818;stroke-width:0.5;" width="15" x="560.2754" y="502.0986"/><rect fill="#F1F1F1" height="2" style="stroke:#181818;stroke-width:0.5;" width="4" x="558.2754" y="504.0986"/><rect fill="#F1F1F1" height="2" style="stroke:#181818;stroke-width:0.5;" width="4" x="558.2754" y="508.0986"/><text fill="#000000" font-family="Arial" font-size="14" lengthAdjust="spacing" textLength="90.2754" x="465" y="530.2305">Route Handler</text><text fill="#000000" font-family="Arial" font-size="14" lengthAdjust="spacing" textLength="59.9102" x="465" y="546.3291">(/api/v1/*)</text></g><!--entity MW--><g class="entity" data-qualified-name="Next.js Server.MW" data-source-line="17" id="ent0009"><rect fill="#F1F1F1" height="62.1973" rx="2.5" ry="2.5" style="stroke:#181818;stroke-width:0.5;" width="135.6895" x="425" y="347.5986"/><rect fill="#F1F1F1" height="10" style="stroke:#181818;stroke-width:0.5;" width="15" x="540.6895" y="352.5986"/><rect fill="#F1F1F1" height="2" style="stroke:#181818;stroke-width:0.5;" width="4" x="538.6895" y="354.5986"/><rect fill="#F1F1F1" height="2" style="stroke:#181818;stroke-width:0.5;" width="4" x="538.6895" y="358.5986"/><text fill="#000000" font-family="Arial" font-size="14" lengthAdjust="spacing" textLength="71.5859" x="440" y="380.7305">Middleware</text><text fill="#000000" font-family="Arial" font-size="14" lengthAdjust="spacing" textLength="95.6895" x="440" y="396.8291">(middleware.ts)</text></g><!--entity Service--><g class="entity" data-qualified-name="Module Service Layer.Service" data-source-line="21" id="ent0011"><rect fill="#F1F1F1" height="46.0986" rx="2.5" ry="2.5" style="stroke:#181818;stroke-width:0.5;" width="99.124" x="624.5" y="658.0986"/><rect fill="#F1F1F1" height="10" style="stroke:#181818;stroke-width:0.5;" width="15" x="703.624" y="663.0986"/><rect fill="#F1F1F1" height="2" style="stroke:#181818;stroke-width:0.5;" width="4" x="701.624" y="665.0986"/><rect fill="#F1F1F1" height="2" style="stroke:#181818;stroke-width:0.5;" width="4" x="701.624" y="669.0986"/><text fill="#000000" font-family="Arial" font-size="14" lengthAdjust="spacing" textLength="59.124" x="639.5" y="691.2305">service.ts</text></g><!--entity DB--><g class="entity" data-qualified-name="DB" data-source-line="24" id="ent0012"><path d="M551,792.0986 C551,782.0986 599.1309,782.0986 599.1309,782.0986 C599.1309,782.0986 647.2617,782.0986 647.2617,792.0986 L647.2617,833.2959 C647.2617,843.2959 599.1309,843.2959 599.1309,843.2959 C599.1309,843.2959 551,843.2959 551,833.2959 L551,792.0986" fill="#F1F1F1" style="stroke:#181818;stroke-width:0.5;"/><path d="M551,792.0986 C551,802.0986 599.1309,802.0986 599.1309,802.0986 C599.1309,802.0986 647.2617,802.0986 647.2617,792.0986" fill="none" style="stroke:#181818;stroke-width:0.5;"/><text fill="#000000" font-family="Arial" font-size="14" lengthAdjust="spacing" textLength="76.2617" x="561" y="819.2305">PostgreSQL</text><text fill="#000000" font-family="Arial" font-size="14" lengthAdjust="spacing" textLength="74.6689" x="561" y="835.3291">(via Prisma)</text></g><!--entity Storage--><g class="entity" data-qualified-name="Storage" data-source-line="25" id="ent0013"><path d="M682,792.0986 C682,782.0986 749.1895,782.0986 749.1895,782.0986 C749.1895,782.0986 816.3789,782.0986 816.3789,792.0986 L816.3789,833.2959 C816.3789,843.2959 749.1895,843.2959 749.1895,843.2959 C749.1895,843.2959 682,843.2959 682,833.2959 L682,792.0986" fill="#F1F1F1" style="stroke:#181818;stroke-width:0.5;"/><path d="M682,792.0986 C682,802.0986 749.1895,802.0986 749.1895,802.0986 C749.1895,802.0986 816.3789,802.0986 816.3789,792.0986" fill="none" style="stroke:#181818;stroke-width:0.5;"/><text fill="#000000" font-family="Arial" font-size="14" lengthAdjust="spacing" textLength="75.4824" x="692" y="819.2305">File Storage</text><text fill="#000000" font-family="Arial" font-size="14" lengthAdjust="spacing" textLength="114.3789" x="692" y="835.3291">(IStorageProvider)</text></g><g class="entity" data-qualified-name="GMN25" data-source-line="41" id="ent0026"><path d="M981,336.0986 L981,420.8423 L1153.0425,420.8423 L1153.0425,346.0986 L1143.0425,336.0986 L981,336.0986" fill="#FEFFDD" style="stroke:#181818;stroke-width:0.5;"/><path d="M1143.0425,336.0986 L1143.0425,346.0986 L1153.0425,346.0986 L1143.0425,336.0986" fill="#FEFFDD" style="stroke:#181818;stroke-width:1;"/><text fill="#000000" font-family="Arial" font-size="13" lengthAdjust="spacing" textLength="88.8608" x="987" y="353.2925">JWT validation.</text><text fill="#000000" font-family="Arial" font-size="13" lengthAdjust="spacing" textLength="151.0425" x="987" y="368.2412">Redirects unauthenticated</text><text fill="#000000" font-family="Arial" font-size="13" lengthAdjust="spacing" textLength="102.6162" x="987" y="383.1899">requests to /login.</text><text fill="#000000" font-family="Arial" font-size="13" lengthAdjust="spacing" textLength="147.3799" x="987" y="398.1387">Does NOT replace RBAC</text><text fill="#000000" font-family="Arial" font-size="13" lengthAdjust="spacing" textLength="90.3081" x="987" y="413.0874">in service layer.</text></g><g class="entity" data-qualified-name="GMN28" data-source-line="49" id="ent0029"><path d="M404,73.5986 L404,97.0986 L369.21,101.0986 L404,105.0986 L404,128.4448 A0,0 0 0 0 404,128.4448 L617.5562,128.4448 A0,0 0 0 0 617.5562,128.4448 L617.5562,83.5986 L607.5562,73.5986 L404,73.5986 A0,0 0 0 0 404,73.5986" fill="#FEFFDD" style="stroke:#181818;stroke-width:0.5;"/><path d="M607.5562,73.5986 L607.5562,83.5986 L617.5562,83.5986 L607.5562,73.5986" fill="#FEFFDD" style="stroke:#181818;stroke-width:0.5;"/><text fill="#000000" font-family="Arial" font-size="13" lengthAdjust="spacing" textLength="192.5562" x="410" y="90.7925">RSC = React Server Component.</text><text fill="#000000" font-family="Arial" font-size="13" lengthAdjust="spacing" textLength="153.8799" x="410" y="105.7412">Can call service.ts directly.</text><text fill="#000000" font-family="Arial" font-size="13" lengthAdjust="spacing" textLength="139.4834" x="410" y="120.6899">No client hooks needed.</text></g><!--link RSCPage to SA--><g class="link" data-entity-1="ent0002" data-entity-2="ent0007" data-link-type="dependency" data-source-line="27" id="lnk14"><path d="M323.39,124.1286 C378.61,159.9386 489.78,233.9286 578,304.5986 C594.73,317.9986 608.7717,330.5196 623.2517,344.0896" fill="none" id="RSCPage-to-SA" style="stroke:#181818;stroke-width:1;"/><polygon fill="#181818" points="626.9,347.5086,623.0683,338.4357,623.2517,344.0896,617.5978,344.273,626.9,347.5086" style="stroke:#181818;stroke-width:1;stroke-linejoin:miter;stroke-miterlimit:10;"/><text fill="#000000" font-family="Arial" font-size="13" lengthAdjust="spacing" textLength="145.9326" x="507" y="232.7925">invoke (forms, mutations)</text></g><!--link RSCPage to Service--><g class="link" data-entity-1="ent0002" data-entity-2="ent0011" data-link-type="dependency" data-source-line="28" id="lnk15"><path d="M368.88,124.1186 C374.67,125.6486 380.42,127.1586 386,128.5986 C475.46,151.6586 790,134.2186 790,226.5986 C790,226.5986 790,226.5986 790,529.0986 C790,584.3086 744.608,628.6965 710.278,655.0165" fill="none" id="RSCPage-to-Service" style="stroke:#181818;stroke-width:1;"/><polygon fill="#181818" points="706.31,658.0586,715.8862,655.7571,710.278,655.0165,711.0187,649.4083,706.31,658.0586" style="stroke:#181818;stroke-width:1;stroke-linejoin:miter;stroke-miterlimit:10;"/><text fill="#000000" font-family="Arial" font-size="13" lengthAdjust="spacing" textLength="154.6162" x="791" y="383.7925">direct call (SSR data fetch)</text></g><!--link CC to Hooks--><g class="link" data-entity-1="ent0003" data-entity-2="ent0004" data-link-type="dependency" data-source-line="29" id="lnk16"><path d="M115.52,124.3586 C133.36,147.0186 157.7576,178.0096 175.5376,200.5996" fill="none" id="CC-to-Hooks" style="stroke:#181818;stroke-width:1;"/><polygon fill="#181818" points="178.63,204.5286,176.2069,194.9825,175.5376,200.5996,169.9205,199.9304,178.63,204.5286" style="stroke:#181818;stroke-width:1;stroke-linejoin:miter;stroke-miterlimit:10;"/><text fill="#000000" font-family="Arial" font-size="13" lengthAdjust="spacing" textLength="126.4517" x="154" y="171.7925">trigger query/mutation</text></g><!--link Hooks to APIClient--><g class="link" data-entity-1="ent0004" data-entity-2="ent0005" data-link-type="dependency" data-source-line="30" id="lnk17"><path d="M205.73,250.9086 C217.98,278.9986 236.9214,322.3955 249.2014,350.5555" fill="none" id="Hooks-to-APIClient" style="stroke:#181818;stroke-width:1;"/><polygon fill="#181818" points="251.2,355.1386,251.269,345.29,249.2014,350.5555,243.9359,348.4878,251.2,355.1386" style="stroke:#181818;stroke-width:1;stroke-linejoin:miter;stroke-miterlimit:10;"/><text fill="#000000" font-family="Arial" font-size="13" lengthAdjust="spacing" textLength="19.5063" x="226" y="293.7925">call</text></g><!--link APIClient to RH--><g class="link" data-entity-1="ent0005" data-entity-2="ent0008" data-link-type="dependency" data-source-line="31" id="lnk18"><path d="M283.18,401.6486 C303.42,420.8586 334.84,448.4686 366,467.0986 C392.09,482.6986 418.2948,494.1426 445.1548,504.1526" fill="none" id="APIClient-to-RH" style="stroke:#181818;stroke-width:1;"/><polygon fill="#181818" points="449.84,505.8986,442.8034,499.0076,445.1548,504.1526,440.0098,506.5039,449.84,505.8986" style="stroke:#181818;stroke-width:1;stroke-linejoin:miter;stroke-miterlimit:10;"/><text fill="#000000" font-family="Arial" font-size="13" lengthAdjust="spacing" textLength="74.4072" x="367" y="464.2925">HTTPS fetch</text></g><!--link RH to MW--><g class="link" data-entity-1="ent0008" data-entity-2="ent0009" data-link-type="dependency" data-source-line="32" id="lnk19"><path d="M533.07,496.8586 C539.17,482.9586 543.45,466.2286 539,451.0986 C534.67,436.3686 529.1328,425.908 520.6828,413.808" fill="none" id="RH-to-MW" style="stroke:#181818;stroke-width:1;"/><polygon fill="#181818" points="517.82,409.7086,519.6935,419.3777,520.6828,413.808,526.2524,414.7972,517.82,409.7086" style="stroke:#181818;stroke-width:1;stroke-linejoin:miter;stroke-miterlimit:10;"/><text fill="#000000" font-family="Arial" font-size="13" lengthAdjust="spacing" textLength="71.5444" x="542" y="464.2925">protected by</text></g><!--link MW to RH--><g class="link" data-entity-1="ent0009" data-entity-2="ent0008" data-link-type="dependency" data-source-line="33" id="lnk20"><path d="M465.9,409.7886 C454.2,426.5586 444.85,447.8786 453,467.0986 C457.73,478.2686 462.1342,484.8534 470.7842,493.4534" fill="none" id="MW-to-RH" style="stroke:#181818;stroke-width:1;"/><polygon fill="#181818" points="474.33,496.9786,470.7678,487.7965,470.7842,493.4534,465.1274,493.4698,474.33,496.9786" style="stroke:#181818;stroke-width:1;stroke-linejoin:miter;stroke-miterlimit:10;"/><text fill="#000000" font-family="Arial" font-size="13" lengthAdjust="spacing" textLength="76.5972" x="454" y="464.2925">allows or 401</text></g><!--link SA to Service--><g class="link" data-entity-1="ent0007" data-entity-2="ent0011" data-link-type="dependency" data-source-line="35" id="lnk21"><path d="M659.61,409.7886 C662.82,470.2186 669.724,599.7857 672.554,652.9157" fill="none" id="SA-to-Service" style="stroke:#181818;stroke-width:1;"/><polygon fill="#181818" points="672.82,657.9086,676.3356,648.7086,672.554,652.9157,668.347,649.1341,672.82,657.9086" style="stroke:#181818;stroke-width:1;stroke-linejoin:miter;stroke-miterlimit:10;"/><text fill="#000000" font-family="Arial" font-size="13" lengthAdjust="spacing" textLength="26.0063" x="669" y="533.2925">calls</text></g><!--link RH to Service--><g class="link" data-entity-1="ent0008" data-entity-2="ent0011" data-link-type="dependency" data-source-line="36" id="lnk22"><path d="M546.79,559.2886 C577.43,588.3786 619.4252,628.2646 646.8952,654.3646" fill="none" id="RH-to-Service" style="stroke:#181818;stroke-width:1;"/><polygon fill="#181818" points="650.52,657.8086,646.7506,648.7096,646.8952,654.3646,641.2402,654.5093,650.52,657.8086" style="stroke:#181818;stroke-width:1;stroke-linejoin:miter;stroke-miterlimit:10;"/><text fill="#000000" font-family="Arial" font-size="13" lengthAdjust="spacing" textLength="26.0063" x="596" y="604.2925">calls</text></g><!--link Service to DB--><g class="link" data-entity-1="ent0011" data-entity-2="ent0012" data-link-type="dependency" data-source-line="37" id="lnk23"><path d="M661.11,704.3586 C648.71,725.7686 632.3953,753.9316 618.7253,777.5416" fill="none" id="Service-to-DB" style="stroke:#181818;stroke-width:1;"/><polygon fill="#181818" points="616.22,781.8686,624.1912,776.0842,618.7253,777.5416,617.2679,772.0757,616.22,781.8686" style="stroke:#181818;stroke-width:1;stroke-linejoin:miter;stroke-miterlimit:10;"/></g><!--link Service to Storage--><g class="link" data-entity-1="ent0011" data-entity-2="ent0013" data-link-type="dependency" data-source-line="38" id="lnk24"><path d="M686.89,704.3586 C699.29,725.7686 715.6047,753.9316 729.2747,777.5416" fill="none" id="Service-to-Storage" style="stroke:#181818;stroke-width:1;"/><polygon fill="#181818" points="731.78,781.8686,730.7321,772.0757,729.2747,777.5416,723.8088,776.0842,731.78,781.8686" style="stroke:#181818;stroke-width:1;stroke-linejoin:miter;stroke-miterlimit:10;"/><text fill="#000000" font-family="Arial" font-size="13" lengthAdjust="spacing" textLength="98.3062" x="714" y="749.2925">upload/download</text></g><!--link MW to GMN25--><g class="link" data-entity-1="ent0009" data-entity-2="ent0026" data-link-type="association" data-source-line="41" id="lnk27"><path d="M514.07,347.3286 C532.38,323.1886 561.29,291.6186 595.5,277.5986 C665.62,248.8586 864.79,253.0886 936.5,277.5986 C970.66,289.2686 1002.81,313.9186 1026.65,335.9486" fill="none" id="MW-GMN25" style="stroke:#181818;stroke-width:1;stroke-dasharray:7,7;"/></g><?plantuml-src NLF1Zjem4BtxAqOzL51rIRVgQQLMWY34LWlD4gGzj3tCnWPS73kr7IYg-kyTso6mcrFyvddcpJoFsqlTeCKQAbCtHWljItzI0jfQVMIkZxeTSdEKUWiRL4vSHRZOOAlyp6Y_n5h0s4fKZ7dfAKjvlvWMS0FvEVaTp2mnXURm5YPOxSFV53t2J9aZOmr1k1NmfgSD9jOSdR33D_2N0NtVLsKEHI1by80dq_gVW0u83M2Yv4fIiKlPoCZp5DmPitSZxs2mHbrwgWYFhR2dOMJDGpGHiP6HjX6-si7HOjEGZiWQ5_Uf1ljt9Nef_lZHBmUbi0TXUy7f2EFAIwD_w076do0X9Il7NMFKYu0vQgw49Lv60hB3RVOkqLRpH5j8JeGZMa6SkZ_qwHPFBqGj36-35IH2LYACx4gQIoZTJKhICTpdPCepEafG6EUtLfIF3rJl814AArsDP0ZTc4wkc3CP2dbZgJ1nxxlVmfg3vD72K2E1Z7MEmStD5ne1t87K1xCND6zZQ_SUwjPZ7DJm9RLhv0wujABoKA5IC2ZB5GGb4DqQiZoFx6WdSRsLsosPy3iudPrJinGEnDvH8eUCx0A4y6fE-7ozBifKW14GyCKJuOqrdfG83iydHaX_WVBGumLZuTE7MyQeovSTX4BkdEerV3w768tv-jZDaAXjempoZ9PJXn_6D4a1QdRdmMp2Mm3u-hI60oh9OyyZGbOYpSv1gx7rE-fILaWDKCmAcf6Za3UGARELySRK20VBRsiADmf9nceo3liaDNHl25HuMICMbZQ8U2tbig1XWJ-J1jg3RbKkcnfgvQYJgPVNsNcjJY6-D50bP-8gWnQ22tvL-Jy0?></g></svg>