<svg xmlns="http://www.w3.org/2000/svg" xmlns:xlink="http://www.w3.org/1999/xlink" contentStyleType="text/css" data-diagram-type="ACTIVITY" height="930px" preserveAspectRatio="none" style="width:1338px;height:930px;background:#FFFFFF;" version="1.1" viewBox="0 0 1338 930" width="1338px" zoomAndPan="magnify"><?plantuml 1.2026.6?><defs/><g><g class="title" data-source-line="5"><text fill="#000000" font-family="Arial" font-size="14" font-weight="700" lengthAdjust="spacing" textLength="357.8477" x="489.2467" y="33.1318">SIMDP - Activity Diagram: Kelola Master Data (Admin)</text></g><ellipse cx="676.9014" cy="62.0986" fill="#222222" rx="10" ry="10" style="stroke:#222222;stroke-width:1;"/><rect fill="#F1F1F1" height="33.7988" rx="12.5" ry="12.5" style="stroke:#181818;stroke-width:0.5;" width="228.0898" x="562.8564" y="92.0986"/><text fill="#000000" font-family="Arial" font-size="12" lengthAdjust="spacing" textLength="208.0898" x="572.8564" y="113.3545">Admin membuka halaman Master Data</text><rect fill="#F1F1F1" height="61.3965" rx="12.5" ry="12.5" style="stroke:#181818;stroke-width:0.5;" width="365.4863" x="494.1582" y="145.8975"/><text fill="#000000" font-family="Arial" font-size="12" lengthAdjust="spacing" textLength="138.7324" x="504.1582" y="167.1533">Pilih kategori master data:</text><text fill="#000000" font-family="Arial" font-size="12" lengthAdjust="spacing" textLength="304.1426" x="504.1582" y="180.9521">EmploymentStatus / EmployeeGroup / ProfessionGroup /</text><text fill="#000000" font-family="Arial" font-size="12" lengthAdjust="spacing" textLength="345.4863" x="504.1582" y="194.751">EmployeePosition / EmployeeRank / Workplace / DocumentType</text><rect fill="#555555" height="6" rx="2.5" ry="2.5" style="stroke:#555555;stroke-width:1;" width="1302.3411" x="16" y="227.2939"/><rect fill="#F1F1F1" height="33.7988" rx="12.5" ry="12.5" style="stroke:#181818;stroke-width:0.5;" width="177.4004" x="193.7124" y="320.5178"/><text fill="#000000" font-family="Arial" font-size="12" lengthAdjust="spacing" textLength="157.4004" x="203.7124" y="341.7737">CREATE - Tambah data baru</text><rect fill="#F1F1F1" height="33.7988" rx="12.5" ry="12.5" style="stroke:#181818;stroke-width:0.5;" width="152.7207" x="206.0522" y="387.7417"/><text fill="#000000" font-family="Arial" font-size="12" lengthAdjust="spacing" textLength="132.7207" x="216.0522" y="408.9976">Admin mengisi form data</text><polygon fill="#F1F1F1" points="232.0513,456.5405,332.7739,456.5405,344.7739,468.5405,332.7739,480.5405,232.0513,480.5405,220.0513,468.5405,232.0513,456.5405" style="stroke:#181818;stroke-width:0.5;stroke-linejoin:miter;stroke-miterlimit:10;"/><text fill="#000000" font-family="Arial" font-size="12" lengthAdjust="spacing" textLength="100.7227" x="232.0513" y="472.897">Validasi Zod lolos?</text><text fill="#000000" font-family="Arial" font-size="11" lengthAdjust="spacing" textLength="13.4546" x="206.5967" y="466.2095">Ya</text><text fill="#000000" font-family="Arial" font-size="11" lengthAdjust="spacing" textLength="26.8984" x="344.7739" y="466.2095">Tidak</text><rect fill="#F1F1F1" height="33.7988" rx="12.5" ry="12.5" style="stroke:#181818;stroke-width:0.5;" width="149.375" x="88.6855" y="490.5405"/><text fill="#000000" font-family="Arial" font-size="12" lengthAdjust="spacing" textLength="129.375" x="98.6855" y="511.7964">INSERT ke tabel master</text><rect fill="#F1F1F1" height="33.7988" rx="12.5" ry="12.5" style="stroke:#181818;stroke-width:0.5;" width="270.7461" x="28" y="559.3394"/><text fill="#000000" font-family="Arial" font-size="12" lengthAdjust="spacing" textLength="250.7461" x="38" y="580.5952">Log SecurityLog (MASTER_DATA_CREATED)</text><rect fill="#F1F1F1" height="33.7988" rx="12.5" ry="12.5" style="stroke:#181818;stroke-width:0.5;" width="125.3984" x="100.6738" y="628.1382"/><text fill="#000000" font-family="Arial" font-size="12" lengthAdjust="spacing" textLength="105.3984" x="110.6738" y="649.394">Return 201 Created</text><rect fill="#F1F1F1" height="33.7988" rx="12.5" ry="12.5" style="stroke:#181818;stroke-width:0.5;" width="165.4121" x="318.7461" y="490.5405"/><text fill="#000000" font-family="Arial" font-size="12" lengthAdjust="spacing" textLength="145.4121" x="328.7461" y="511.7964">Return 400 Validation Error</text><ellipse cx="401.4521" cy="570.3394" fill="none" rx="11" ry="11" style="stroke:#222222;stroke-width:1;"/><ellipse cx="401.4521" cy="570.3394" fill="#222222" rx="6" ry="6" style="stroke:#222222;stroke-width:1;"/><rect fill="#F1F1F1" height="33.7988" rx="12.5" ry="12.5" style="stroke:#181818;stroke-width:0.5;" width="179.416" x="762.5725" y="253.2939"/><text fill="#000000" font-family="Arial" font-size="12" lengthAdjust="spacing" textLength="159.416" x="772.5725" y="274.5498">UPDATE - Edit data yang ada</text><rect fill="#F1F1F1" height="33.7988" rx="12.5" ry="12.5" style="stroke:#181818;stroke-width:0.5;" width="239.4922" x="732.5344" y="314.1184"/><text fill="#000000" font-family="Arial" font-size="12" lengthAdjust="spacing" textLength="219.4922" x="742.5344" y="335.3743">Admin mengubah data yang perlu diubah</text><path d="M515.6199,381.3423 L515.6199,406.291 L759.8987,406.291 L759.8987,391.3423 L749.8987,381.3423 L515.6199,381.3423" fill="#FEFFDD" style="stroke:#181818;stroke-width:0.5;"/><path d="M749.8987,381.3423 L749.8987,391.3423 L759.8987,391.3423 L749.8987,381.3423" fill="#FEFFDD" style="stroke:#181818;stroke-width:0.5;"/><text fill="#000000" font-family="Arial" font-size="13" lengthAdjust="spacing" textLength="223.2788" x="521.6199" y="398.5361">Contoh: DocumentType dg record aktif</text><rect fill="#F1F1F1" height="33.7988" rx="12.5" ry="12.5" style="stroke:#181818;stroke-width:0.5;" width="242.1465" x="731.2073" y="454.6155"/><text fill="#000000" font-family="Arial" font-size="12" lengthAdjust="spacing" textLength="222.1465" x="741.2073" y="475.8713">Tampilkan peringatan dampak perubahan</text><polygon fill="#F1F1F1" points="771.8987,406.291,932.6624,406.291,944.6624,418.291,932.6624,430.291,771.8987,430.291,759.8987,418.291,771.8987,406.291" style="stroke:#181818;stroke-width:0.5;stroke-linejoin:miter;stroke-miterlimit:10;"/><text fill="#000000" font-family="Arial" font-size="11" lengthAdjust="spacing" textLength="13.4546" x="856.2805" y="440.6089">Ya</text><text fill="#000000" font-family="Arial" font-size="12" lengthAdjust="spacing" textLength="160.7637" x="771.8987" y="422.6475">Data digunakan di relasi aktif?</text><polygon fill="#F1F1F1" points="852.2805,512.7388,864.2805,524.7388,852.2805,536.7388,840.2805,524.7388,852.2805,512.7388" style="stroke:#181818;stroke-width:0.5;stroke-linejoin:miter;stroke-miterlimit:10;"/><rect fill="#F1F1F1" height="33.7988" rx="12.5" ry="12.5" style="stroke:#181818;stroke-width:0.5;" width="86.0352" x="809.2629" y="571.7388"/><text fill="#000000" font-family="Arial" font-size="12" lengthAdjust="spacing" textLength="66.0352" x="819.2629" y="592.9946">Validasi Zod</text><rect fill="#F1F1F1" height="33.7988" rx="12.5" ry="12.5" style="stroke:#181818;stroke-width:0.5;" width="138.0371" x="783.262" y="640.5376"/><text fill="#000000" font-family="Arial" font-size="12" lengthAdjust="spacing" textLength="118.0371" x="793.262" y="661.7935">UPDATE tabel master</text><rect fill="#F1F1F1" height="33.7988" rx="12.5" ry="12.5" style="stroke:#181818;stroke-width:0.5;" width="270.7461" x="716.9075" y="701.3621"/><text fill="#000000" font-family="Arial" font-size="12" lengthAdjust="spacing" textLength="250.7461" x="726.9075" y="722.6179">Log SecurityLog (MASTER_DATA_UPDATED)</text><rect fill="#F1F1F1" height="33.7988" rx="12.5" ry="12.5" style="stroke:#181818;stroke-width:0.5;" width="215.4043" x="1037.2952" y="307.0928"/><text fill="#000000" font-family="Arial" font-size="12" lengthAdjust="spacing" textLength="195.4043" x="1047.2952" y="328.3486">DELETE (Soft Delete) - Non-aktifkan</text><rect fill="#F1F1F1" height="33.7988" rx="12.5" ry="12.5" style="stroke:#181818;stroke-width:0.5;" width="294.6875" x="997.6536" y="422.6411"/><text fill="#000000" font-family="Arial" font-size="12" lengthAdjust="spacing" textLength="274.6875" x="1007.6536" y="443.897">Tolak: "Data masih digunakan, tidak dapat dihapus"</text><ellipse cx="1144.9973" cy="502.4399" fill="none" rx="11" ry="11" style="stroke:#222222;stroke-width:1;"/><ellipse cx="1144.9973" cy="502.4399" fill="#222222" rx="6" ry="6" style="stroke:#222222;stroke-width:1;"/><polygon fill="#F1F1F1" points="1071.9602,374.3167,1218.0344,374.3167,1230.0344,386.3167,1218.0344,398.3167,1071.9602,398.3167,1059.9602,386.3167,1071.9602,374.3167" style="stroke:#181818;stroke-width:0.5;stroke-linejoin:miter;stroke-miterlimit:10;"/><text fill="#000000" font-family="Arial" font-size="11" lengthAdjust="spacing" textLength="13.4546" x="1148.9973" y="408.6345">Ya</text><text fill="#000000" font-family="Arial" font-size="12" lengthAdjust="spacing" textLength="146.0742" x="1071.9602" y="390.6731">Data masih direferensikan?</text><rect fill="#F1F1F1" height="33.7988" rx="12.5" ry="12.5" style="stroke:#181818;stroke-width:0.5;" width="143.0469" x="1073.4739" y="578.7644"/><text fill="#000000" font-family="Arial" font-size="12" lengthAdjust="spacing" textLength="123.0469" x="1083.4739" y="600.0203">Set deletedAt = NOW()</text><rect fill="#F1F1F1" height="33.7988" rx="12.5" ry="12.5" style="stroke:#181818;stroke-width:0.5;" width="268.7539" x="1010.6204" y="647.5632"/><text fill="#000000" font-family="Arial" font-size="12" lengthAdjust="spacing" textLength="248.7539" x="1020.6204" y="668.8191">Log SecurityLog (MASTER_DATA_DELETED)</text><rect fill="#555555" height="6" rx="2.5" ry="2.5" style="stroke:#555555;stroke-width:1;" width="1302.3411" x="16" y="755.1609"/><rect fill="#F1F1F1" height="33.7988" rx="12.5" ry="12.5" style="stroke:#181818;stroke-width:0.5;" width="142.7246" x="605.5391" y="781.1609"/><text fill="#000000" font-family="Arial" font-size="12" lengthAdjust="spacing" textLength="122.7246" x="615.5391" y="802.4167">Return respons sukses</text><rect fill="#F1F1F1" height="33.7988" rx="12.5" ry="12.5" style="stroke:#181818;stroke-width:0.5;" width="257.4512" x="548.1758" y="834.9597"/><text fill="#000000" font-family="Arial" font-size="12" lengthAdjust="spacing" textLength="237.4512" x="558.1758" y="856.2156">Halaman di-refresh, data terbaru ditampilkan</text><ellipse cx="676.9014" cy="899.7585" fill="none" rx="11" ry="11" style="stroke:#222222;stroke-width:1;"/><ellipse cx="676.9014" cy="899.7585" fill="#222222" rx="6" ry="6" style="stroke:#222222;stroke-width:1;"/><line style="stroke:#181818;stroke-width:1;" x1="676.9014" x2="676.9014" y1="72.0986" y2="92.0986"/><polygon fill="#181818" points="672.9014,82.0986,676.9014,92.0986,680.9014,82.0986,676.9014,86.0986" style="stroke:#181818;stroke-width:1;stroke-linejoin:miter;stroke-miterlimit:10;"/><line style="stroke:#181818;stroke-width:1;" x1="676.9014" x2="676.9014" y1="125.8975" y2="145.8975"/><polygon fill="#181818" points="672.9014,135.8975,676.9014,145.8975,680.9014,135.8975,676.9014,139.8975" style="stroke:#181818;stroke-width:1;stroke-linejoin:miter;stroke-miterlimit:10;"/><line style="stroke:#181818;stroke-width:1;" x1="282.4126" x2="282.4126" y1="354.3167" y2="387.7417"/><polygon fill="#181818" points="278.4126,377.7417,282.4126,387.7417,286.4126,377.7417,282.4126,381.7417" style="stroke:#181818;stroke-width:1;stroke-linejoin:miter;stroke-miterlimit:10;"/><line style="stroke:#181818;stroke-width:1;" x1="163.373" x2="163.373" y1="524.3394" y2="559.3394"/><polygon fill="#181818" points="159.373,549.3394,163.373,559.3394,167.373,549.3394,163.373,553.3394" style="stroke:#181818;stroke-width:1;stroke-linejoin:miter;stroke-miterlimit:10;"/><line style="stroke:#181818;stroke-width:1;" x1="163.373" x2="163.373" y1="593.1382" y2="628.1382"/><polygon fill="#181818" points="159.373,618.1382,163.373,628.1382,167.373,618.1382,163.373,622.1382" style="stroke:#181818;stroke-width:1;stroke-linejoin:miter;stroke-miterlimit:10;"/><line style="stroke:#181818;stroke-width:1;" x1="401.4521" x2="401.4521" y1="524.3394" y2="559.3394"/><polygon fill="#181818" points="397.4521,549.3394,401.4521,559.3394,405.4521,549.3394,401.4521,553.3394" style="stroke:#181818;stroke-width:1;stroke-linejoin:miter;stroke-miterlimit:10;"/><line style="stroke:#181818;stroke-width:1;" x1="220.0513" x2="163.373" y1="468.5405" y2="468.5405"/><line style="stroke:#181818;stroke-width:1;" x1="163.373" x2="163.373" y1="468.5405" y2="490.5405"/><polygon fill="#181818" points="159.373,480.5405,163.373,490.5405,167.373,480.5405,163.373,484.5405" style="stroke:#181818;stroke-width:1;stroke-linejoin:miter;stroke-miterlimit:10;"/><line style="stroke:#181818;stroke-width:1;" x1="344.7739" x2="401.4521" y1="468.5405" y2="468.5405"/><line style="stroke:#181818;stroke-width:1;" x1="401.4521" x2="401.4521" y1="468.5405" y2="490.5405"/><polygon fill="#181818" points="397.4521,480.5405,401.4521,490.5405,405.4521,480.5405,401.4521,484.5405" style="stroke:#181818;stroke-width:1;stroke-linejoin:miter;stroke-miterlimit:10;"/><line style="stroke:#181818;stroke-width:1;" x1="163.373" x2="163.373" y1="661.937" y2="667.937"/><line style="stroke:#181818;stroke-width:1;" x1="163.373" x2="282.4126" y1="667.937" y2="667.937"/><line style="stroke:#181818;stroke-width:1;" x1="282.4126" x2="282.4126" y1="667.937" y2="755.1609"/><polygon fill="#181818" points="278.4126,745.1609,282.4126,755.1609,286.4126,745.1609,282.4126,749.1609" style="stroke:#181818;stroke-width:1;stroke-linejoin:miter;stroke-miterlimit:10;"/><line style="stroke:#181818;stroke-width:1;" x1="282.4126" x2="282.4126" y1="421.5405" y2="456.5405"/><polygon fill="#181818" points="278.4126,446.5405,282.4126,456.5405,286.4126,446.5405,282.4126,450.5405" style="stroke:#181818;stroke-width:1;stroke-linejoin:miter;stroke-miterlimit:10;"/><line style="stroke:#181818;stroke-width:1;" x1="852.2805" x2="852.2805" y1="287.0928" y2="314.1184"/><polygon fill="#181818" points="848.2805,304.1184,852.2805,314.1184,856.2805,304.1184,852.2805,308.1184" style="stroke:#181818;stroke-width:1;stroke-linejoin:miter;stroke-miterlimit:10;"/><line style="stroke:#181818;stroke-width:1;" x1="852.2805" x2="852.2805" y1="430.291" y2="454.6155"/><polygon fill="#181818" points="848.2805,444.6155,852.2805,454.6155,856.2805,444.6155,852.2805,448.6155" style="stroke:#181818;stroke-width:1;stroke-linejoin:miter;stroke-miterlimit:10;"/><line style="stroke:#181818;stroke-width:1;" x1="944.6624" x2="983.3538" y1="418.291" y2="418.291"/><polygon fill="#181818" points="979.3538,461.5149,983.3538,471.5149,987.3538,461.5149,983.3538,465.5149" style="stroke:#181818;stroke-width:1;stroke-linejoin:miter;stroke-miterlimit:10;"/><line style="stroke:#181818;stroke-width:1;" x1="983.3538" x2="983.3538" y1="418.291" y2="524.7388"/><line style="stroke:#181818;stroke-width:1;" x1="983.3538" x2="864.2805" y1="524.7388" y2="524.7388"/><polygon fill="#181818" points="874.2805,520.7388,864.2805,524.7388,874.2805,528.7388,870.2805,524.7388" style="stroke:#181818;stroke-width:1;stroke-linejoin:miter;stroke-miterlimit:10;"/><line style="stroke:#181818;stroke-width:1;" x1="852.2805" x2="852.2805" y1="488.4143" y2="512.7388"/><polygon fill="#181818" points="848.2805,502.7388,852.2805,512.7388,856.2805,502.7388,852.2805,506.7388" style="stroke:#181818;stroke-width:1;stroke-linejoin:miter;stroke-miterlimit:10;"/><line style="stroke:#181818;stroke-width:1;" x1="852.2805" x2="852.2805" y1="347.9172" y2="406.291"/><polygon fill="#181818" points="848.2805,396.291,852.2805,406.291,856.2805,396.291,852.2805,400.291" style="stroke:#181818;stroke-width:1;stroke-linejoin:miter;stroke-miterlimit:10;"/><line style="stroke:#181818;stroke-width:1;" x1="852.2805" x2="852.2805" y1="536.7388" y2="571.7388"/><polygon fill="#181818" points="848.2805,561.7388,852.2805,571.7388,856.2805,561.7388,852.2805,565.7388" style="stroke:#181818;stroke-width:1;stroke-linejoin:miter;stroke-miterlimit:10;"/><line style="stroke:#181818;stroke-width:1;" x1="852.2805" x2="852.2805" y1="605.5376" y2="640.5376"/><polygon fill="#181818" points="848.2805,630.5376,852.2805,640.5376,856.2805,630.5376,852.2805,634.5376" style="stroke:#181818;stroke-width:1;stroke-linejoin:miter;stroke-miterlimit:10;"/><line style="stroke:#181818;stroke-width:1;" x1="852.2805" x2="852.2805" y1="674.3364" y2="701.3621"/><polygon fill="#181818" points="848.2805,691.3621,852.2805,701.3621,856.2805,691.3621,852.2805,695.3621" style="stroke:#181818;stroke-width:1;stroke-linejoin:miter;stroke-miterlimit:10;"/><line style="stroke:#181818;stroke-width:1;" x1="1144.9973" x2="1144.9973" y1="456.4399" y2="491.4399"/><polygon fill="#181818" points="1140.9973,481.4399,1144.9973,491.4399,1148.9973,481.4399,1144.9973,485.4399" style="stroke:#181818;stroke-width:1;stroke-linejoin:miter;stroke-miterlimit:10;"/><line style="stroke:#181818;stroke-width:1;" x1="1144.9973" x2="1144.9973" y1="398.3167" y2="422.6411"/><polygon fill="#181818" points="1140.9973,412.6411,1144.9973,422.6411,1148.9973,412.6411,1144.9973,416.6411" style="stroke:#181818;stroke-width:1;stroke-linejoin:miter;stroke-miterlimit:10;"/><line style="stroke:#181818;stroke-width:1;" x1="1230.0344" x2="1302.3411" y1="386.3167" y2="386.3167"/><polygon fill="#181818" points="1298.3411,455.0405,1302.3411,465.0405,1306.3411,455.0405,1302.3411,459.0405" style="stroke:#181818;stroke-width:1;stroke-linejoin:miter;stroke-miterlimit:10;"/><line style="stroke:#181818;stroke-width:1;" x1="1302.3411" x2="1302.3411" y1="386.3167" y2="543.7644"/><line style="stroke:#181818;stroke-width:1;" x1="1302.3411" x2="1144.9973" y1="543.7644" y2="543.7644"/><line style="stroke:#181818;stroke-width:1;" x1="1144.9973" x2="1144.9973" y1="543.7644" y2="578.7644"/><polygon fill="#181818" points="1140.9973,568.7644,1144.9973,578.7644,1148.9973,568.7644,1144.9973,572.7644" style="stroke:#181818;stroke-width:1;stroke-linejoin:miter;stroke-miterlimit:10;"/><line style="stroke:#181818;stroke-width:1;" x1="1144.9973" x2="1144.9973" y1="340.8916" y2="374.3167"/><polygon fill="#181818" points="1140.9973,364.3167,1144.9973,374.3167,1148.9973,364.3167,1144.9973,368.3167" style="stroke:#181818;stroke-width:1;stroke-linejoin:miter;stroke-miterlimit:10;"/><line style="stroke:#181818;stroke-width:1;" x1="1144.9973" x2="1144.9973" y1="612.5632" y2="647.5632"/><polygon fill="#181818" points="1140.9973,637.5632,1144.9973,647.5632,1148.9973,637.5632,1144.9973,641.5632" style="stroke:#181818;stroke-width:1;stroke-linejoin:miter;stroke-miterlimit:10;"/><line style="stroke:#181818;stroke-width:1;" x1="282.4126" x2="282.4126" y1="233.2939" y2="320.5178"/><polygon fill="#181818" points="278.4126,310.5178,282.4126,320.5178,286.4126,310.5178,282.4126,314.5178" style="stroke:#181818;stroke-width:1;stroke-linejoin:miter;stroke-miterlimit:10;"/><line style="stroke:#181818;stroke-width:1;" x1="852.2805" x2="852.2805" y1="233.2939" y2="253.2939"/><polygon fill="#181818" points="848.2805,243.2939,852.2805,253.2939,856.2805,243.2939,852.2805,247.2939" style="stroke:#181818;stroke-width:1;stroke-linejoin:miter;stroke-miterlimit:10;"/><line style="stroke:#181818;stroke-width:1;" x1="1144.9973" x2="1144.9973" y1="233.2939" y2="307.0928"/><polygon fill="#181818" points="1140.9973,297.0928,1144.9973,307.0928,1148.9973,297.0928,1144.9973,301.0928" style="stroke:#181818;stroke-width:1;stroke-linejoin:miter;stroke-miterlimit:10;"/><line style="stroke:#181818;stroke-width:1;" x1="852.2805" x2="852.2805" y1="735.1609" y2="755.1609"/><polygon fill="#181818" points="848.2805,745.1609,852.2805,755.1609,856.2805,745.1609,852.2805,749.1609" style="stroke:#181818;stroke-width:1;stroke-linejoin:miter;stroke-miterlimit:10;"/><line style="stroke:#181818;stroke-width:1;" x1="1144.9973" x2="1144.9973" y1="681.3621" y2="755.1609"/><polygon fill="#181818" points="1140.9973,745.1609,1144.9973,755.1609,1148.9973,745.1609,1144.9973,749.1609" style="stroke:#181818;stroke-width:1;stroke-linejoin:miter;stroke-miterlimit:10;"/><line style="stroke:#181818;stroke-width:1;" x1="676.9014" x2="676.9014" y1="207.2939" y2="227.2939"/><polygon fill="#181818" points="672.9014,217.2939,676.9014,227.2939,680.9014,217.2939,676.9014,221.2939" style="stroke:#181818;stroke-width:1;stroke-linejoin:miter;stroke-miterlimit:10;"/><line style="stroke:#181818;stroke-width:1;" x1="676.9014" x2="676.9014" y1="761.1609" y2="781.1609"/><polygon fill="#181818" points="672.9014,771.1609,676.9014,781.1609,680.9014,771.1609,676.9014,775.1609" style="stroke:#181818;stroke-width:1;stroke-linejoin:miter;stroke-miterlimit:10;"/><line style="stroke:#181818;stroke-width:1;" x1="676.9014" x2="676.9014" y1="814.9597" y2="834.9597"/><polygon fill="#181818" points="672.9014,824.9597,676.9014,834.9597,680.9014,824.9597,676.9014,828.9597" style="stroke:#181818;stroke-width:1;stroke-linejoin:miter;stroke-miterlimit:10;"/><line style="stroke:#181818;stroke-width:1;" x1="676.9014" x2="676.9014" y1="868.7585" y2="888.7585"/><polygon fill="#181818" points="672.9014,878.7585,676.9014,888.7585,680.9014,878.7585,676.9014,882.7585" style="stroke:#181818;stroke-width:1;stroke-linejoin:miter;stroke-miterlimit:10;"/><?plantuml-src XLHHRzCm47xFhpZnr4gRs2QUMY4KBG4cjbArWGc4D5thItAAOqUs0og_ddFILks6u2tsTtV-lk_kuXis7JfimTUex2ys5PIeFIN-Y2WgiTVXlJLXWIr1wXZr2Pvk0__ai8i1Q_vDS7sJ98639bZVFMHBk3o6GCPOISuCFf6s6k41VI076GQ4IQfQDjCayG5TI9BPS8QMsatV8DIeiKLpcZ9FPalMN4E3WIhh6DeHL0BEVfYyxRJTjIIy0eRUmsiOhuW-EDjtSbuwMvBtRCt-vf15jBIUWm0dMIiqZHmVhMiwZLkIxynk-_X2iUjedYIbG0d0x7QLfqKkqWjiDrWFZ623hfz7zA3CLEmP9AST0YB69Ko-ecQ5Wdot2iGdwzzD8THaOF8Dfn8a9UuMwtnLG4CGS4Dwhtm-WlUsWZLjUoUUn-_9GxekyjLJbXRfqqWjc-vZLnHwP-3cwXfk7OcHAW8aCm2JGcWqqxEuDrTNCF8RlCcTi_jNVR1Tp3IAoy47m0hPHBrVbjdeHguuZ5xiK4OD5Jxpep-QDGHqv7GFYkFrmPrXM1HNlS56va4nEDBHBMm2bo-SCZOGEAxgC8DR6L5RpywQ1ggI0blhr5XWL2jjwrZ7-a91jaBUbAVa4fju4_cWcH_bIiPfq-Odef-tvz_D6PDYSyuTpFBxN8fDrhOCa96cG5FnSs7DvS2w6TaS_P7tP2yKEoh9aV4i0I-7g90TR6RmwYnbR-m5XDXz4TsXz8nhx7h_wY-jbZfhaeY1b4e3l8N5vyV9zFzYHr5Hh5I2ONMImvmvyfqr7dpVUFAowH_t-w_uKaG9N5-CWoA-niKI81oQDey_4Q7u1m00?></g></svg>