<svg xmlns="http://www.w3.org/2000/svg" xmlns:xlink="http://www.w3.org/1999/xlink" contentStyleType="text/css" data-diagram-type="DESCRIPTION" height="439px" preserveAspectRatio="none" style="width:1644px;height:439px;background:#FFFFFF;" version="1.1" viewBox="0 0 1644 439" width="1644px" zoomAndPan="magnify"><?plantuml 1.2026.6?><defs/><g><g class="title" data-source-line="6"><text fill="#000000" font-family="Arial" font-size="14" font-weight="700" lengthAdjust="spacing" textLength="276.9238" x="680.5231" y="23.1318">SIMDP - Use Case: Administrator (Admin)</text></g><!--cluster Fitur Eksklusif Admin--><g class="cluster" data-qualified-name="Fitur Eksklusif Admin" data-source-line="12" id="ent0004"><rect fill="none" height="260" rx="2.5" ry="2.5" style="stroke:#181818;stroke-width:1;" width="1414" x="181" y="165.5986"/><text fill="#000000" font-family="Arial" font-size="14" font-weight="700" lengthAdjust="spacing" textLength="143.9102" x="816.0449" y="180.7305">Fitur Eksklusif Admin</text></g><!--entity UC_ManageDocType--><g class="entity" data-qualified-name="Fitur Eksklusif Admin.UC_ManageDocType" data-source-line="13" id="ent0005"><ellipse cx="316.8605" cy="234.4707" fill="#F1F1F1" rx="119.8605" ry="26.3721" style="stroke:#181818;stroke-width:0.5;"/><text fill="#000000" font-family="Arial" font-size="14" lengthAdjust="spacing" textLength="185.9717" x="223.8746" y="232.9131">Kelola Master Jenis Dokumen</text><text fill="#000000" font-family="Arial" font-size="14" lengthAdjust="spacing" textLength="148.5859" x="242.5675" y="249.0117">(CRUD DocumentType)</text></g><!--entity UC_ManageTargetMatch--><g class="entity" data-qualified-name="Fitur Eksklusif Admin.UC_ManageTargetMatch" data-source-line="14" id="ent0006"><ellipse cx="888.0367" cy="379.106" fill="#F1F1F1" rx="140.5367" ry="30.5073" style="stroke:#181818;stroke-width:0.5;"/><text fill="#000000" font-family="Arial" font-size="14" lengthAdjust="spacing" textLength="207.7715" x="784.1509" y="373.6779">Kelola Target Matching Dokumen</text><text fill="#000000" font-family="Arial" font-size="14" lengthAdjust="spacing" textLength="235.7646" x="770.1543" y="389.7765">(ProfessionGroup / Status / Rank / dll)</text></g><!--entity UC_ManageMasterData--><g class="entity" data-qualified-name="Fitur Eksklusif Admin.UC_ManageMasterData" data-source-line="15" id="ent0007"><ellipse cx="630.2222" cy="234.5431" fill="#F1F1F1" rx="157.7222" ry="33.9444" style="stroke:#181818;stroke-width:0.5;"/><text fill="#000000" font-family="Arial" font-size="14" lengthAdjust="spacing" textLength="119.0547" x="570.6948" y="222.9938">Kelola Master Data</text><text fill="#000000" font-family="Arial" font-size="14" lengthAdjust="spacing" textLength="298.792" x="480.8262" y="239.0924">(EmploymentStatus, Workplace, Rank, Jabatan)</text></g><!--entity UC_ManageSettings--><g class="entity" data-qualified-name="Fitur Eksklusif Admin.UC_ManageSettings" data-source-line="16" id="ent0008"><ellipse cx="948.9564" cy="234.6899" fill="#F1F1F1" rx="125.9564" ry="27.5913" style="stroke:#181818;stroke-width:0.5;"/><text fill="#000000" font-family="Arial" font-size="14" lengthAdjust="spacing" textLength="143.958" x="876.9774" y="227.3513">Kelola System Settings</text><text fill="#000000" font-family="Arial" font-size="14" lengthAdjust="spacing" textLength="213.1719" x="842.3705" y="243.45">(Reminder Days, Max Upload MB)</text></g><!--entity UC_ViewSecurityLog--><g class="entity" data-qualified-name="Fitur Eksklusif Admin.UC_ViewSecurityLog" data-source-line="17" id="ent0009"><ellipse cx="1223.8365" cy="234.4683" fill="#F1F1F1" rx="113.8365" ry="25.3696" style="stroke:#181818;stroke-width:0.5;"/><text fill="#000000" font-family="Arial" font-size="14" lengthAdjust="spacing" textLength="147.8682" x="1149.9024" y="230.4013">Lihat Audit Security Log</text><text fill="#000000" font-family="Arial" font-size="14" lengthAdjust="spacing" textLength="159.5303" x="1144.0714" y="246.5">(Append-only, Read-only)</text></g><!--entity UC_ManageUser--><g class="entity" data-qualified-name="Fitur Eksklusif Admin.UC_ManageUser" data-source-line="18" id="ent0010"><ellipse cx="1476.0485" cy="234.5544" fill="#F1F1F1" rx="102.5485" ry="24.4558" style="stroke:#181818;stroke-width:0.5;"/><text fill="#000000" font-family="Arial" font-size="14" lengthAdjust="spacing" textLength="108.165" x="1421.966" y="229.1398">Kelola Akun User</text><text fill="#000000" font-family="Arial" font-size="14" lengthAdjust="spacing" textLength="149.3857" x="1401.3557" y="245.2384">(Aktifkan / Non-aktifkan)</text></g><!--entity staff--><g class="entity" data-qualified-name="staff" data-source-line="8" id="ent0001"><ellipse cx="83.8237" cy="205.0986" fill="#F1F1F1" rx="8" ry="8" style="stroke:#181818;stroke-width:0.5;"/><path d="M83.8237,213.0986 L83.8237,240.0986 M70.8237,221.0986 L96.8237,221.0986 M83.8237,240.0986 L70.8237,255.0986 M83.8237,240.0986 L96.8237,255.0986" fill="none" style="stroke:#181818;stroke-width:0.5;"/><text fill="#000000" font-family="Arial" font-size="14" lengthAdjust="spacing" textLength="155.6475" x="6" y="269.7305">Staf Kepegawaian (Staff)</text></g><!--entity admin--><g class="entity" data-qualified-name="admin" data-source-line="9" id="ent0002"><ellipse cx="949.1826" cy="51.0986" fill="#F1F1F1" rx="8" ry="8" style="stroke:#181818;stroke-width:0.5;"/><path d="M949.1826,59.0986 L949.1826,86.0986 M936.1826,67.0986 L962.1826,67.0986 M949.1826,86.0986 L936.1826,101.0986 M949.1826,86.0986 L962.1826,101.0986" fill="none" style="stroke:#181818;stroke-width:0.5;"/><text fill="#000000" font-family="Arial" font-size="14" lengthAdjust="spacing" textLength="135.3652" x="881.5" y="115.7305">Administrator (Admin)</text></g><!--link admin to staff--><g class="link" data-entity-1="ent0002" data-entity-2="ent0001" data-link-type="extension" data-source-line="10" id="lnk3"><path d="M881.31,83.4686 C718.19,88.7486 307.52,106.8286 181,157.5986 C158.96,166.4386 151.3926,170.1086 134.4826,184.7886" fill="none" id="admin-to-staff" style="stroke:#181818;stroke-width:1;"/><polygon fill="none" points="120.89,196.5886,138.4159,189.3194,130.5492,180.2577,120.89,196.5886" style="stroke:#181818;stroke-width:1;stroke-linejoin:miter;stroke-miterlimit:10;"/></g><!--link admin to UC_ManageDocType--><g class="link" data-entity-1="ent0002" data-entity-2="ent0005" data-link-type="dependency" data-source-line="21" id="lnk11"><path d="M881.31,84.5286 C784.46,90.3886 601.84,107.6286 455,157.5986 C418.23,170.1086 384.01,189.4469 357.07,206.5669" fill="none" id="admin-to-UC_ManageDocType" style="stroke:#181818;stroke-width:1;"/><polygon fill="#181818" points="352.85,209.2486,362.5914,207.7975,357.07,206.5669,358.3006,201.0455,352.85,209.2486" style="stroke:#181818;stroke-width:1;stroke-linejoin:miter;stroke-miterlimit:10;"/></g><!--link admin to UC_ManageTargetMatch--><g class="link" data-entity-1="ent0002" data-entity-2="ent0006" data-link-type="dependency" data-source-line="22" id="lnk12"><path d="M1016.68,84.5486 C1174.79,92.1386 1557.93,114.7886 1596,157.5986 C1629.97,195.7886 1629.37,233.8886 1596,272.5986 C1524.24,355.8386 1218.6591,374.3233 1033.5291,377.8533" fill="none" id="admin-to-UC_ManageTargetMatch" style="stroke:#181818;stroke-width:1;"/><polygon fill="#181818" points="1028.53,377.9486,1037.6046,381.7763,1033.5291,377.8533,1037.4521,373.7778,1028.53,377.9486" style="stroke:#181818;stroke-width:1;stroke-linejoin:miter;stroke-miterlimit:10;"/></g><!--link admin to UC_ManageMasterData--><g class="link" data-entity-1="ent0002" data-entity-2="ent0007" data-link-type="dependency" data-source-line="23" id="lnk13"><path d="M881.35,113.8386 C825.84,140.2786 752.3339,175.308 697.9939,201.198" fill="none" id="admin-to-UC_ManageMasterData" style="stroke:#181818;stroke-width:1;"/><polygon fill="#181818" points="693.48,203.3486,703.3254,203.0886,697.9939,201.198,699.8845,195.8665,693.48,203.3486" style="stroke:#181818;stroke-width:1;stroke-linejoin:miter;stroke-miterlimit:10;"/></g><!--link admin to UC_ManageSettings--><g class="link" data-entity-1="ent0002" data-entity-2="ent0008" data-link-type="dependency" data-source-line="24" id="lnk14"><path d="M949,118.7786 C949,146.0286 949,177.3686 949,201.8086" fill="none" id="admin-to-UC_ManageSettings" style="stroke:#181818;stroke-width:1;"/><polygon fill="#181818" points="949,206.8086,953,197.8086,949,201.8086,945,197.8086,949,206.8086" style="stroke:#181818;stroke-width:1;stroke-linejoin:miter;stroke-miterlimit:10;"/></g><!--link admin to UC_ViewSecurityLog--><g class="link" data-entity-1="ent0002" data-entity-2="ent0009" data-link-type="dependency" data-source-line="25" id="lnk15"><path d="M1016.7,116.6186 C1040.89,129.3186 1068.27,143.9086 1093,157.5986 C1124.28,174.9186 1154.9922,192.7504 1180.9422,208.0404" fill="none" id="admin-to-UC_ViewSecurityLog" style="stroke:#181818;stroke-width:1;"/><polygon fill="#181818" points="1185.25,210.5786,1179.5265,202.5636,1180.9422,208.0404,1175.4653,209.4561,1185.25,210.5786" style="stroke:#181818;stroke-width:1;stroke-linejoin:miter;stroke-miterlimit:10;"/></g><!--link admin to UC_ManageUser--><g class="link" data-entity-1="ent0002" data-entity-2="ent0010" data-link-type="dependency" data-source-line="26" id="lnk16"><path d="M1016.7,86.3586 C1099.28,93.9286 1241.94,112.7586 1356,157.5986 C1389.51,170.7686 1419.809,190.6669 1443.109,207.8869" fill="none" id="admin-to-UC_ManageUser" style="stroke:#181818;stroke-width:1;"/><polygon fill="#181818" points="1447.13,210.8586,1442.2696,202.2926,1443.109,207.8869,1437.5147,208.7263,1447.13,210.8586" style="stroke:#181818;stroke-width:1;stroke-linejoin:miter;stroke-miterlimit:10;"/></g><!--link UC_ManageDocType to UC_ManageTargetMatch--><g class="link" data-entity-1="ent0005" data-entity-2="ent0006" data-link-type="dependency" data-source-line="28" id="lnk17"><path d="M390.33,255.5986 C411.2,261.1986 433.97,267.2186 455,272.5986 C571.94,302.5186 702.2763,333.9891 790.0663,354.9191" fill="none" id="UC_ManageDocType-to-UC_ManageTargetMatch" style="stroke:#181818;stroke-width:1;stroke-dasharray:7,7;"/><polygon fill="#181818" points="794.93,356.0786,787.103,350.1005,790.0663,354.9191,785.2477,357.8824,794.93,356.0786" style="stroke:#181818;stroke-width:1;stroke-linejoin:miter;stroke-miterlimit:10;"/><text fill="#000000" font-family="Arial" font-size="13" lengthAdjust="spacing" textLength="55.6563" x="634" y="315.7925">&#171;include&#187;</text></g><?plantuml-src TLB1Rjim3BthAmYVKY1fxqKH86lQOMrT576pNWOCd4mxWcJ9a6HanhP_7sqtgRSulbZa8zzxeXYqiZLwh01bT3wBhI48KKbTeHNXYDOeDPOqu9vaH5iQ6XM47UPkhsm91PemHd8gi37ntjduZ1N1oYiqGaGLcIhxagvVO07RG72BWQvXbLVAgX0ziX-OzU654BqzTeP50HWWoVW4ZrHJYNjKQ67MPOgBvBqIkxw-SfAGo_g2nUBtSc0LudWjIEvLR3pSwQ1D4rGnc4hWbm3-ca2IhSBszdkAbgUoTlArhQbNUoJZ34AA8PA71s9bM3lTL6I_sTdjPhlcK7PXx7hOo2JbA_gIOefHxiQqGnhwV3Vh3-ONxmeAGJdxsRkcXYlWUSGcy663LlClD-QSsk1sZH4dxj2bMU2kgerhEzy3yHpUdDUrGKdpNc8E3_Y3Q-qvbOnYPDDXh96rh5710MAT3V6eyrwtPP4KVyAMbJ67zDCfyrT5-unaurLidrpPKp-f7KPODRcASC20GIPVrJNPVE6iQTaquN0yPvYNqe_DhdHZkqtr7PEEgj2yTrVmxEm2tqEc-YEEkxKysP4fQFJMK_37uqoXXydzY_qtbgd6xXv2dEpmvUMqCxY6vEP6MMcQd9RBHFm5?></g></svg>