<svg xmlns="http://www.w3.org/2000/svg" xmlns:xlink="http://www.w3.org/1999/xlink" contentStyleType="text/css" data-diagram-type="STATE" height="527px" preserveAspectRatio="none" style="width:647px;height:527px;background:#FFFFFF;" version="1.1" viewBox="0 0 647 527" width="647px" zoomAndPan="magnify"><?plantuml 1.2026.6?><defs/><g><g class="title" data-source-line="4"><text fill="#000000" font-family="Arial" font-size="14" font-weight="700" lengthAdjust="spacing" textLength="368.7852" x="135.6113" y="23.1318">SIMDP - State Diagram: PasswordResetToken Lifecycle</text></g><g class="start_entity" data-qualified-name=".start." data-source-line="6" id="ent0001"><ellipse cx="226.5" cy="53.0986" fill="#222222" rx="10" ry="10" style="stroke:#222222;stroke-width:1;"/></g><g class="entity" data-qualified-name="VALID" data-source-line="6" id="ent0002"><rect fill="#F1F1F1" height="50" rx="12.5" ry="12.5" style="stroke:#181818;stroke-width:0.5;" width="60.4619" x="196.5" y="171.5986"/><line style="stroke:#181818;stroke-width:0.5;" x1="196.5" x2="256.9619" y1="197.6973" y2="197.6973"/><text fill="#000000" font-family="Arial" font-size="14" lengthAdjust="spacing" textLength="40.4619" x="206.5" y="189.7305">VALID</text></g><g class="entity" data-qualified-name="USED" data-source-line="8" id="ent0004"><rect fill="#F1F1F1" height="50" rx="12.5" ry="12.5" style="stroke:#181818;stroke-width:0.5;" width="58.8965" x="7" y="340.0986"/><line style="stroke:#181818;stroke-width:0.5;" x1="7" x2="65.8965" y1="366.1973" y2="366.1973"/><text fill="#000000" font-family="Arial" font-size="14" lengthAdjust="spacing" textLength="38.8965" x="17" y="358.2305">USED</text></g><g class="entity" data-qualified-name="EXPIRED" data-source-line="10" id="ent0006"><rect fill="#F1F1F1" height="50" rx="12.5" ry="12.5" style="stroke:#181818;stroke-width:0.5;" width="81.4619" x="377" y="340.0986"/><line style="stroke:#181818;stroke-width:0.5;" x1="377" x2="458.4619" y1="366.1973" y2="366.1973"/><text fill="#000000" font-family="Arial" font-size="14" lengthAdjust="spacing" textLength="61.4619" x="387" y="358.2305">EXPIRED</text></g><g class="end_entity" data-qualified-name=".end." data-source-line="12" id="ent0008"><ellipse cx="226.5" cy="502.0986" fill="none" rx="11" ry="11" style="stroke:#222222;stroke-width:1;"/><ellipse cx="226.5" cy="502.0986" fill="#222222" rx="6" ry="6" style="stroke:#222222;stroke-width:1;"/></g><g class="entity" data-qualified-name="GMN11" data-source-line="17" id="ent0012"><path d="M291.5,169.0986 L291.5,192.5986 L256.55,196.5986 L291.5,200.5986 L291.5,223.9448 A0,0 0 0 0 291.5,223.9448 L607.3105,223.9448 A0,0 0 0 0 607.3105,223.9448 L607.3105,179.0986 L597.3105,169.0986 L291.5,169.0986 A0,0 0 0 0 291.5,169.0986" fill="#FEFFDD" style="stroke:#181818;stroke-width:0.5;"/><path d="M597.3105,169.0986 L597.3105,179.0986 L607.3105,179.0986 L597.3105,169.0986" fill="#FEFFDD" style="stroke:#181818;stroke-width:0.5;"/><text fill="#000000" font-family="Arial" font-size="13" lengthAdjust="spacing" textLength="268.0679" x="297.5" y="186.2925">Token yang dikirim ke email adalah rawToken.</text><text fill="#000000" font-family="Arial" font-size="13" lengthAdjust="spacing" textLength="294.8105" x="297.5" y="201.2412">Yang tersimpan di DB adalah SHA-256(rawToken).</text><text fill="#000000" font-family="Arial" font-size="13" lengthAdjust="spacing" textLength="126.4453" x="297.5" y="216.1899">Bersifat one-time use.</text></g><g class="entity" data-qualified-name="GMN14" data-source-line="23" id="ent0015"><path d="M101,330.0986 L101,361.0986 L66.13,365.0986 L101,369.0986 L101,399.8936 A0,0 0 0 0 101,399.8936 L342.3716,399.8936 A0,0 0 0 0 342.3716,399.8936 L342.3716,340.0986 L332.3716,330.0986 L101,330.0986 A0,0 0 0 0 101,330.0986" fill="#FEFFDD" style="stroke:#181818;stroke-width:0.5;"/><path d="M332.3716,330.0986 L332.3716,340.0986 L342.3716,340.0986 L332.3716,330.0986" fill="#FEFFDD" style="stroke:#181818;stroke-width:0.5;"/><text fill="#000000" font-family="Arial" font-size="13" lengthAdjust="spacing" textLength="171.2534" x="107" y="347.2925">Saat reset password berhasil:</text><text fill="#000000" font-family="Arial" font-size="13" lengthAdjust="spacing" textLength="151.7471" x="107" y="362.2412">- passwordHash di-update</text><text fill="#000000" font-family="Arial" font-size="13" lengthAdjust="spacing" textLength="220.3716" x="107" y="377.1899">- Semua RefreshToken user di-revoke</text><text fill="#000000" font-family="Arial" font-size="13" lengthAdjust="spacing" textLength="78.749" x="107" y="392.1387">- usedAt di-isi</text></g><!--link *start* to VALID--><g class="link" data-entity-1="ent0001" data-entity-2="ent0002" data-link-type="dependency" data-source-line="6" id="lnk3"><path d="M226.5,63.3786 C226.5,85.0886 226.5,134.7086 226.5,166.5486" fill="none" id="*start*-to-VALID" style="stroke:#181818;stroke-width:1;"/><polygon fill="#181818" points="226.5,171.5486,230.5,162.5486,226.5,166.5486,222.5,162.5486,226.5,171.5486" style="stroke:#181818;stroke-width:1;stroke-linejoin:miter;stroke-miterlimit:10;"/><text fill="#000000" font-family="Arial" font-size="13" lengthAdjust="spacing" textLength="161.8589" x="348.3245" y="106.2925">User request lupa password</text><text fill="#000000" font-family="Arial" font-size="13" lengthAdjust="spacing" textLength="211.7007" x="323.4036" y="121.2412">(POST /api/v1/auth/forgot-password)</text><text fill="#000000" font-family="Arial" font-size="13" lengthAdjust="spacing" textLength="403.5078" x="227.5" y="136.1899">INSERT PasswordResetToken (usedAt=NULL, expiresAt=NOW()+1h)</text></g><!--link VALID to USED--><g class="link" data-entity-1="ent0002" data-entity-2="ent0004" data-link-type="dependency" data-source-line="8" id="lnk5"><path d="M196.13,212.6986 C176.9,223.0086 152.06,237.7186 132.5,254.0986 C101.6,279.9786 75.0688,312.1528 57.1188,335.8528" fill="none" id="VALID-to-USED" style="stroke:#181818;stroke-width:1;"/><polygon fill="#181818" points="54.1,339.8386,62.7225,335.0792,57.1188,335.8528,56.3452,330.2491,54.1,339.8386" style="stroke:#181818;stroke-width:1;stroke-linejoin:miter;stroke-miterlimit:10;"/><text fill="#000000" font-family="Arial" font-size="13" lengthAdjust="spacing" textLength="168.3462" x="153.0063" y="267.2925">User berhasil reset password</text><text fill="#000000" font-family="Arial" font-size="13" lengthAdjust="spacing" textLength="207.3589" x="133.5" y="282.2412">(POST /api/v1/auth/reset-password)</text><text fill="#000000" font-family="Arial" font-size="13" lengthAdjust="spacing" textLength="160.7163" x="156.8213" y="297.1899">(UPDATE usedAt = NOW())</text></g><!--link VALID to EXPIRED--><g class="link" data-entity-1="ent0002" data-entity-2="ent0006" data-link-type="dependency" data-source-line="10" id="lnk7"><path d="M256.72,214.9086 C262.56,218.0786 268.68,221.2686 274.5,224.0986 C305.31,239.0686 319.2,232.1486 345.5,254.0986 C373.89,277.7886 393.011,311.0436 404.821,335.5736" fill="none" id="VALID-to-EXPIRED" style="stroke:#181818;stroke-width:1;"/><polygon fill="#181818" points="406.99,340.0786,406.6899,330.2343,404.821,335.5736,399.4818,333.7047,406.99,340.0786" style="stroke:#181818;stroke-width:1;stroke-linejoin:miter;stroke-miterlimit:10;"/><text fill="#000000" font-family="Arial" font-size="13" lengthAdjust="spacing" textLength="109.4336" x="414.7527" y="274.7925">expiresAt &lt; NOW()</text><text fill="#000000" font-family="Arial" font-size="13" lengthAdjust="spacing" textLength="171.939" x="383.5" y="289.7412">(lebih dari 1 jam sejak dikirim)</text></g><!--link USED to *end*--><g class="link" data-entity-1="ent0004" data-entity-2="ent0008" data-link-type="dependency" data-source-line="12" id="lnk9"><path d="M59.69,390.4986 C80.14,411.0786 111.44,440.4086 142.5,461.0986 C167.37,477.6586 195.4893,489.3941 211.7693,495.6141" fill="none" id="USED-to-*end*" style="stroke:#181818;stroke-width:1;"/><polygon fill="#181818" points="216.44,497.3986,209.4603,490.4499,211.7693,495.6141,206.6051,497.9231,216.44,497.3986" style="stroke:#181818;stroke-width:1;stroke-linejoin:miter;stroke-miterlimit:10;"/><text fill="#000000" font-family="Arial" font-size="13" lengthAdjust="spacing" textLength="163.3188" x="158.8359" y="443.2925">Token tidak bisa dipakai lagi</text><text fill="#000000" font-family="Arial" font-size="13" lengthAdjust="spacing" textLength="193.9907" x="143.5" y="458.2412">(usedAt IS NOT NULL = rejected)</text></g><!--link EXPIRED to *end*--><g class="link" data-entity-1="ent0006" data-entity-2="ent0008" data-link-type="dependency" data-source-line="14" id="lnk10"><path d="M403.57,390.3786 C390.17,411.7586 368.06,442.3186 341.5,461.0986 C307.84,484.8986 263.6649,494.7851 242.1649,498.5551" fill="none" id="EXPIRED-to-*end*" style="stroke:#181818;stroke-width:1;"/><polygon fill="#181818" points="237.24,499.4186,246.7956,501.8041,242.1649,498.5551,245.4139,493.9243,237.24,499.4186" style="stroke:#181818;stroke-width:1;stroke-linejoin:miter;stroke-miterlimit:10;"/><text fill="#000000" font-family="Arial" font-size="13" lengthAdjust="spacing" textLength="163.3188" x="381.4187" y="443.2925">Token tidak bisa dipakai lagi</text><text fill="#000000" font-family="Arial" font-size="13" lengthAdjust="spacing" textLength="179.1563" x="373.5" y="458.2412">(expiresAt &lt; NOW() = rejected)</text></g><?plantuml-src ZPBRRjD048Rl_HHpcG1k52IuY6YbL0vgf916iSD1b8j9TcnFV6HttT2tPzPsJ0C8SRax__pppS5aNDQeiG2JegfEN2OGOsx8CqD4KOnDRjzNfLrZGJ3NZBddMROvGRZy46p0Xz2Y9GWO4qcPmGQDELLQRScGZQgCIbXnJ8UdGqwUz_N5D_3z6_WuNoq3cC7Ea0PDtnio5lAcHgZx_8TojBaF8vXWpPF7wGGRcqxYIYULzS-QyKEvN8UBRVItggF6a9hRw_LkjNe5zADcJSQzxp-DnY-dwTZpEWh7imiN0ywUT8g6S-4Iity3jPBdFAFT9fX72-YAmpMqvIvgBJvlbjkst005xpgTvEUqvnGKQeOf7Drww8WPACvOSo56BQhpSRESGTUiPIMYFHiKPOqPCkIOiFZr8CjGAaJWXY5GcevqiAJ4xapp_uv_K5yQbfMSW-OajL35tQ8zw4sVKAwiRmKo0YfGvemASqn1uwbLNOdyYnDQqeQB6aj9WU3sh0llvlxhDsz7P_tO9TmwROnIioJViXohD7xbKQd00VsEvOOeMI5AnkMQX_NF9EuFttTeP2liDxMISsz38HKDmfPYCKYx_XftFwBIz2ZlLjNFNpxPy2-Udm00?></g></svg>